<?xml version="1.0" encoding="utf-8"?>
<!-- Generator: Adobe Illustrator 24.3.0, SVG Export Plug-In . SVG Version: 6.00 Build 0)  -->
<svg version="1.1" id="Layer_1" xmlns="http://www.w3.org/2000/svg" xmlns:xlink="http://www.w3.org/1999/xlink" x="0px" y="0px"
	 viewBox="0 0 226 50" style="enable-background:new 0 0 226 50;" xml:space="preserve">
<style type="text/css">
	.st0{filter:url(#Adobe_OpacityMaskFilter);}
	.st1{fill-rule:evenodd;clip-rule:evenodd;fill:#FFFFFF;}
	.st2{mask:url(#mask-2_1_);fill-rule:evenodd;clip-rule:evenodd;fill:url(#Fill-1_1_);}
	.st3{filter:url(#Adobe_OpacityMaskFilter_1_);}
	.st4{mask:url(#mask-5_1_);fill-rule:evenodd;clip-rule:evenodd;fill:url(#Fill-4_1_);}
	.st5{filter:url(#Adobe_OpacityMaskFilter_2_);}
	.st6{mask:url(#mask-8_1_);fill-rule:evenodd;clip-rule:evenodd;fill:url(#Fill-7_1_);}
	.st7{filter:url(#Adobe_OpacityMaskFilter_3_);}
	.st8{mask:url(#mask-11_1_);fill-rule:evenodd;clip-rule:evenodd;fill:url(#Fill-10_1_);}
	.st9{filter:url(#Adobe_OpacityMaskFilter_4_);}
	.st10{mask:url(#mask-14_1_);fill-rule:evenodd;clip-rule:evenodd;fill:url(#Fill-13_1_);}
	.st11{filter:url(#Adobe_OpacityMaskFilter_5_);}
	.st12{mask:url(#mask-17_1_);fill-rule:evenodd;clip-rule:evenodd;fill:url(#Fill-16_1_);}
	.st13{filter:url(#Adobe_OpacityMaskFilter_6_);}
	.st14{mask:url(#mask-20_1_);fill-rule:evenodd;clip-rule:evenodd;fill:url(#Fill-19_1_);}
	.st15{filter:url(#Adobe_OpacityMaskFilter_7_);}
	.st16{mask:url(#mask-23_1_);fill-rule:evenodd;clip-rule:evenodd;fill:url(#Fill-22_1_);}
	.st17{filter:url(#Adobe_OpacityMaskFilter_8_);}
	.st18{mask:url(#mask-26_1_);fill-rule:evenodd;clip-rule:evenodd;fill:url(#Fill-25_1_);}
	.st19{filter:url(#Adobe_OpacityMaskFilter_9_);}
	.st20{mask:url(#mask-29_1_);fill-rule:evenodd;clip-rule:evenodd;fill:url(#Fill-28_1_);}
	.st21{fill-rule:evenodd;clip-rule:evenodd;fill:#F9B408;}
	.st22{fill-rule:evenodd;clip-rule:evenodd;fill:url(#Fill-50_1_);}
	.st23{fill-rule:evenodd;clip-rule:evenodd;fill:url(#Fill-53_1_);}
</style>
<g id="Group-56" transform="translate(151.000000, 20.000000)">
	<g id="Group-3" transform="translate(0.000000, 15.584332)">
		<g id="Clip-2">
		</g>
		<defs>
			<filter id="Adobe_OpacityMaskFilter" filterUnits="userSpaceOnUse" x="-151" y="-19.8" width="28.2" height="27">
				<feColorMatrix  type="matrix" values="1 0 0 0 0  0 1 0 0 0  0 0 1 0 0  0 0 0 1 0"/>
			</filter>
		</defs>
		<mask maskUnits="userSpaceOnUse" x="-151" y="-19.8" width="28.2" height="27" id="mask-2_1_">
			<g class="st0">
				<path id="path-1_1_" class="st1" d="M-142.6-18.8c-1.7,0.7-3.2,1.6-4.5,2.8l0,0c-1.3,1.2-2.2,2.6-2.9,4.3l0,0
					c-0.7,1.6-1,3.4-1,5.4l0,0v0c0,1.9,0.3,3.7,1,5.3l0,0c0.7,1.6,1.7,3.1,2.9,4.3l0,0c1.2,1.2,2.7,2.2,4.5,2.8l0,0
					c1.7,0.7,3.6,1,5.7,1l0,0c2.1,0,3.9-0.3,5.7-1l0,0c1.7-0.7,3.2-1.6,4.5-2.8l0,0c1.3-1.2,2.2-2.7,2.9-4.3l0,0
					c0.7-1.6,1-3.4,1-5.3l0,0c0-1.9-0.3-3.7-1-5.4l0,0c-0.7-1.6-1.7-3.1-2.9-4.3l0,0c-1.2-1.2-2.7-2.2-4.5-2.8l0,0
					c-1.7-0.7-3.6-1-5.7-1l0,0c0,0,0,0,0,0l0,0C-139-19.8-140.9-19.5-142.6-18.8 M-136.9,0.7c-0.9,0-1.7-0.2-2.5-0.5l0,0
					c-0.7-0.4-1.4-0.9-1.9-1.5l0,0c-0.5-0.6-0.9-1.4-1.2-2.2l0,0c-0.3-0.9-0.4-1.8-0.4-2.7l0,0c0-1,0.1-1.9,0.4-2.7l0,0
					c0.3-0.9,0.7-1.6,1.2-2.2l0,0c0.5-0.6,1.2-1.1,1.9-1.5l0,0c0.7-0.4,1.6-0.5,2.5-0.5l0,0c0.9,0,1.7,0.2,2.5,0.5l0,0
					c0.7,0.4,1.4,0.9,1.9,1.5l0,0c0.5,0.6,0.9,1.4,1.2,2.2l0,0c0.3,0.9,0.4,1.8,0.4,2.7l0,0c0,1-0.1,1.9-0.4,2.7l0,0
					c-0.3,0.9-0.7,1.6-1.2,2.2l0,0c-0.5,0.6-1.2,1.1-1.9,1.5l0,0C-135.2,0.5-136,0.7-136.9,0.7L-136.9,0.7
					C-136.9,0.7-136.9,0.7-136.9,0.7"/>
			</g>
		</mask>
		
			<linearGradient id="Fill-1_1_" gradientUnits="userSpaceOnUse" x1="-699.4739" y1="360.6377" x2="-691.7812" y2="360.6377" gradientTransform="matrix(28.1519 0 0 -26.962 19549.3477 9717.2109)">
			<stop  offset="0" style="stop-color:#FFB821"/>
			<stop  offset="1" style="stop-color:#00B156"/>
		</linearGradient>
		<path id="Fill-1" class="st2" d="M-142.6-18.8c-1.7,0.7-3.2,1.6-4.5,2.8l0,0c-1.3,1.2-2.2,2.6-2.9,4.3l0,0c-0.7,1.6-1,3.4-1,5.4
			l0,0v0c0,1.9,0.3,3.7,1,5.3l0,0c0.7,1.6,1.7,3.1,2.9,4.3l0,0c1.2,1.2,2.7,2.2,4.5,2.8l0,0c1.7,0.7,3.6,1,5.7,1l0,0
			c2.1,0,3.9-0.3,5.7-1l0,0c1.7-0.7,3.2-1.6,4.5-2.8l0,0c1.3-1.2,2.2-2.7,2.9-4.3l0,0c0.7-1.6,1-3.4,1-5.3l0,0c0-1.9-0.3-3.7-1-5.4
			l0,0c-0.7-1.6-1.7-3.1-2.9-4.3l0,0c-1.2-1.2-2.7-2.2-4.5-2.8l0,0c-1.7-0.7-3.6-1-5.7-1l0,0c0,0,0,0,0,0l0,0
			C-139-19.8-140.9-19.5-142.6-18.8 M-136.9,0.7c-0.9,0-1.7-0.2-2.5-0.5l0,0c-0.7-0.4-1.4-0.9-1.9-1.5l0,0c-0.5-0.6-0.9-1.4-1.2-2.2
			l0,0c-0.3-0.9-0.4-1.8-0.4-2.7l0,0c0-1,0.1-1.9,0.4-2.7l0,0c0.3-0.9,0.7-1.6,1.2-2.2l0,0c0.5-0.6,1.2-1.1,1.9-1.5l0,0
			c0.7-0.4,1.6-0.5,2.5-0.5l0,0c0.9,0,1.7,0.2,2.5,0.5l0,0c0.7,0.4,1.4,0.9,1.9,1.5l0,0c0.5,0.6,0.9,1.4,1.2,2.2l0,0
			c0.3,0.9,0.4,1.8,0.4,2.7l0,0c0,1-0.1,1.9-0.4,2.7l0,0c-0.3,0.9-0.7,1.6-1.2,2.2l0,0c-0.5,0.6-1.2,1.1-1.9,1.5l0,0
			C-135.2,0.5-136,0.7-136.9,0.7L-136.9,0.7C-136.9,0.7-136.9,0.7-136.9,0.7"/>
	</g>
	<g id="Group-6" transform="translate(39.400922, 15.814747)">
		<g id="Clip-5">
		</g>
		<defs>
			<filter id="Adobe_OpacityMaskFilter_1_" filterUnits="userSpaceOnUse" x="-150.9" y="-20" width="28.6" height="26.5">
				<feColorMatrix  type="matrix" values="1 0 0 0 0  0 1 0 0 0  0 0 1 0 0  0 0 0 1 0"/>
			</filter>
		</defs>
		<mask maskUnits="userSpaceOnUse" x="-150.9" y="-20" width="28.6" height="26.5" id="mask-5_1_">
			<g class="st3">
				<path id="path-4_1_" class="st1" d="M-140.2-19c-1.1,0.6-1.9,1.6-2.3,2.8l0,0l-8.4,22.7l8.3,0l1.5-4.5l8.9,0l1.4,4.5l8.5,0
					l-8.3-22.8c-0.5-1.2-1.2-2.2-2.3-2.8l0,0c-1.1-0.6-2.3-0.9-3.7-0.9l0,0c0,0,0,0,0,0l0,0C-137.9-20-139.2-19.7-140.2-19
					L-140.2-19z M-139.4-4.2l2.6-8.4c0-0.1,0.1-0.1,0.1-0.2l0,0c0,0,0.1-0.1,0.1-0.1l0,0c0.1,0,0.1,0,0.2,0.1l0,0
					c0,0,0.1,0.1,0.1,0.2l0,0l2.4,8.4L-139.4-4.2z"/>
			</g>
		</mask>
		
			<linearGradient id="Fill-4_1_" gradientUnits="userSpaceOnUse" x1="-740.5752" y1="360.1764" x2="-733.0021" y2="360.1764" gradientTransform="matrix(28.5965 0 0 -26.5012 20996.3359 9538.374)">
			<stop  offset="0" style="stop-color:#FFB821"/>
			<stop  offset="1" style="stop-color:#00B156"/>
		</linearGradient>
		<path id="Fill-4" class="st4" d="M-140.2-19c-1.1,0.6-1.9,1.6-2.3,2.8l0,0l-8.4,22.7l8.3,0l1.5-4.5l8.9,0l1.4,4.5l8.5,0l-8.3-22.8
			c-0.5-1.2-1.2-2.2-2.3-2.8l0,0c-1.1-0.6-2.3-0.9-3.7-0.9l0,0c0,0,0,0,0,0l0,0C-137.9-20-139.2-19.7-140.2-19L-140.2-19z
			 M-139.4-4.2l2.6-8.4c0-0.1,0.1-0.1,0.1-0.2l0,0c0,0,0.1-0.1,0.1-0.1l0,0c0.1,0,0.1,0,0.2,0.1l0,0c0,0,0.1,0.1,0.1,0.2l0,0
			l2.4,8.4L-139.4-4.2z"/>
	</g>
	<g id="Group-9" transform="translate(71.658986, 22.496774)">
		<g id="Clip-8">
		</g>
		<defs>
			<filter id="Adobe_OpacityMaskFilter_2_" filterUnits="userSpaceOnUse" x="-150.9" y="-19.8" width="21.1" height="27.2">
				<feColorMatrix  type="matrix" values="1 0 0 0 0  0 1 0 0 0  0 0 1 0 0  0 0 0 1 0"/>
			</filter>
		</defs>
		<mask maskUnits="userSpaceOnUse" x="-150.9" y="-19.8" width="21.1" height="27.2" id="mask-8_1_">
			<g class="st5">
				<path id="path-7_1_" class="st1" d="M-146.2-18.4c-1.6,0.9-2.7,2.2-3.5,3.7l0,0c-0.8,1.5-1.2,3.2-1.2,4.9l0,0
					c0,1.6,0.3,3.1,1,4.5l0,0c0.7,1.4,1.7,2.4,2.9,3.3l0,0c1.3,0.8,2.7,1.2,4.4,1.2l0,0c0.9,0,1.8-0.1,2.4-0.3l0,0
					c0.7-0.2,1.3-0.5,1.7-0.9l0,0c0.5-0.4,0.9-0.8,1.2-1.2l0,0l0.2,0l0,3.3c0,0.4-0.1,0.7-0.4,0.9l0,0c-0.3,0.2-0.6,0.4-1.1,0.4l0,0
					l-9.1,0l0,6.1l11.5,0h0c1.9,0,3.5-0.5,4.5-1.6l0,0c1.1-1.1,1.6-2.5,1.6-4.3l0,0l0-10.9c0-2.1-0.4-3.9-1.3-5.4l0,0
					c-0.9-1.6-2.2-2.8-3.7-3.7l0,0c-1.6-0.9-3.5-1.3-5.6-1.3l0,0c0,0,0,0,0,0l0,0C-142.8-19.8-144.7-19.3-146.2-18.4 M-140.4-6.6
					c-0.6,0-1.2-0.2-1.7-0.4l0,0c-0.5-0.3-0.9-0.7-1.2-1.2l0,0c-0.3-0.5-0.4-1.1-0.4-1.7l0,0c0-0.6,0.1-1.2,0.4-1.7l0,0
					c0.3-0.5,0.7-0.9,1.2-1.2l0,0c0.5-0.3,1.1-0.4,1.7-0.4l0,0c0.6,0,1.2,0.2,1.7,0.5l0,0c0.5,0.3,0.9,0.7,1.2,1.2l0,0
					c0.3,0.5,0.4,1.1,0.4,1.7l0,0c0,0.6-0.1,1.1-0.4,1.7l0,0c-0.3,0.5-0.7,0.9-1.2,1.2l0,0C-139.2-6.7-139.7-6.6-140.4-6.6
					L-140.4-6.6C-140.4-6.6-140.4-6.6-140.4-6.6"/>
			</g>
		</mask>
		
			<linearGradient id="Fill-7_1_" gradientUnits="userSpaceOnUse" x1="-767.7063" y1="353.8559" x2="-757.4576" y2="353.8559" gradientTransform="matrix(21.1307 0 0 -27.23 16008.3604 9629.2852)">
			<stop  offset="0" style="stop-color:#FFB821"/>
			<stop  offset="1" style="stop-color:#00B156"/>
		</linearGradient>
		<path id="Fill-7" class="st6" d="M-146.2-18.4c-1.6,0.9-2.7,2.2-3.5,3.7l0,0c-0.8,1.5-1.2,3.2-1.2,4.9l0,0c0,1.6,0.3,3.1,1,4.5
			l0,0c0.7,1.4,1.7,2.4,2.9,3.3l0,0c1.3,0.8,2.7,1.2,4.4,1.2l0,0c0.9,0,1.8-0.1,2.4-0.3l0,0c0.7-0.2,1.3-0.5,1.7-0.9l0,0
			c0.5-0.4,0.9-0.8,1.2-1.2l0,0l0.2,0l0,3.3c0,0.4-0.1,0.7-0.4,0.9l0,0c-0.3,0.2-0.6,0.4-1.1,0.4l0,0l-9.1,0l0,6.1l11.5,0h0
			c1.9,0,3.5-0.5,4.5-1.6l0,0c1.1-1.1,1.6-2.5,1.6-4.3l0,0l0-10.9c0-2.1-0.4-3.9-1.3-5.4l0,0c-0.9-1.6-2.2-2.8-3.7-3.7l0,0
			c-1.6-0.9-3.5-1.3-5.6-1.3l0,0c0,0,0,0,0,0l0,0C-142.8-19.8-144.7-19.3-146.2-18.4 M-140.4-6.6c-0.6,0-1.2-0.2-1.7-0.4l0,0
			c-0.5-0.3-0.9-0.7-1.2-1.2l0,0c-0.3-0.5-0.4-1.1-0.4-1.7l0,0c0-0.6,0.1-1.2,0.4-1.7l0,0c0.3-0.5,0.7-0.9,1.2-1.2l0,0
			c0.5-0.3,1.1-0.4,1.7-0.4l0,0c0.6,0,1.2,0.2,1.7,0.5l0,0c0.5,0.3,0.9,0.7,1.2,1.2l0,0c0.3,0.5,0.4,1.1,0.4,1.7l0,0
			c0,0.6-0.1,1.1-0.4,1.7l0,0c-0.3,0.5-0.7,0.9-1.2,1.2l0,0C-139.2-6.7-139.7-6.6-140.4-6.6L-140.4-6.6
			C-140.4-6.6-140.4-6.6-140.4-6.6"/>
	</g>
	<g id="Group-12" transform="translate(98.156682, 23.188018)">
		<g id="Clip-11">
		</g>
		<defs>
			<filter id="Adobe_OpacityMaskFilter_3_" filterUnits="userSpaceOnUse" x="-150.8" y="-20" width="12.2" height="19.2">
				<feColorMatrix  type="matrix" values="1 0 0 0 0  0 1 0 0 0  0 0 1 0 0  0 0 0 1 0"/>
			</filter>
		</defs>
		<mask maskUnits="userSpaceOnUse" x="-150.8" y="-20" width="12.2" height="19.2" id="mask-11_1_">
			<g class="st7">
				<path id="path-10_1_" class="st1" d="M-149.2-18.4c-1.1,1.1-1.6,2.5-1.6,4.3l0,0l0,13.3l7.1,0l0-12.4c0-0.4,0.1-0.8,0.4-1l0,0
					c0.3-0.3,0.6-0.4,1-0.4l0,0l3.7,0l0-5.4l-6.2,0c0,0,0,0,0,0l0,0C-146.7-20-148.1-19.5-149.2-18.4"/>
			</g>
		</mask>
		
			<linearGradient id="Fill-10_1_" gradientUnits="userSpaceOnUse" x1="-778.9995" y1="347.6682" x2="-761.3152" y2="347.6682" gradientTransform="matrix(12.2461 0 0 -19.2021 9299.3828 6665.5659)">
			<stop  offset="0" style="stop-color:#FFB821"/>
			<stop  offset="1" style="stop-color:#00B156"/>
		</linearGradient>
		<path id="Fill-10" class="st8" d="M-149.2-18.4c-1.1,1.1-1.6,2.5-1.6,4.3l0,0l0,13.3l7.1,0l0-12.4c0-0.4,0.1-0.8,0.4-1l0,0
			c0.3-0.3,0.6-0.4,1-0.4l0,0l3.7,0l0-5.4l-6.2,0c0,0,0,0,0,0l0,0C-146.7-20-148.1-19.5-149.2-18.4"/>
	</g>
	<g id="Group-15" transform="translate(114.746544, 13.510599)">
		<g id="Clip-14">
		</g>
		<defs>
			<filter id="Adobe_OpacityMaskFilter_4_" filterUnits="userSpaceOnUse" x="-150.8" y="-19.9" width="7.6" height="28.8">
				<feColorMatrix  type="matrix" values="1 0 0 0 0  0 1 0 0 0  0 0 1 0 0  0 0 0 1 0"/>
			</filter>
		</defs>
		<mask maskUnits="userSpaceOnUse" x="-150.8" y="-19.9" width="7.6" height="28.8" id="mask-14_1_">
			<g class="st9">
				<path id="path-13_1_" class="st1" d="M-149.7-18.8c-0.7,0.8-1.1,1.7-1.1,2.7l0,0c0,1,0.4,1.9,1.1,2.7l0,0
					c0.7,0.8,1.6,1.1,2.7,1.1l0,0c1,0,1.9-0.4,2.7-1.1l0,0c0.7-0.8,1.1-1.6,1.1-2.7l0,0c0-1-0.4-1.9-1.1-2.7l0,0
					c-0.7-0.8-1.6-1.1-2.7-1.1l0,0c0,0,0,0,0,0l0,0C-148.1-19.9-149-19.5-149.7-18.8L-149.7-18.8z M-150.6,8.9l7.1,0l0-19.2l-7.1,0
					L-150.6,8.9z"/>
			</g>
		</mask>
		
			<linearGradient id="Fill-13_1_" gradientUnits="userSpaceOnUse" x1="-773.6461" y1="363.57" x2="-745.0626" y2="363.57" gradientTransform="matrix(7.5765 0 0 -28.8258 5604.6475 10474.7051)">
			<stop  offset="0" style="stop-color:#FFB821"/>
			<stop  offset="1" style="stop-color:#00B156"/>
		</linearGradient>
		<path id="Fill-13" class="st10" d="M-149.7-18.8c-0.7,0.8-1.1,1.7-1.1,2.7l0,0c0,1,0.4,1.9,1.1,2.7l0,0c0.7,0.8,1.6,1.1,2.7,1.1
			l0,0c1,0,1.9-0.4,2.7-1.1l0,0c0.7-0.8,1.1-1.6,1.1-2.7l0,0c0-1-0.4-1.9-1.1-2.7l0,0c-0.7-0.8-1.6-1.1-2.7-1.1l0,0c0,0,0,0,0,0l0,0
			C-148.1-19.9-149-19.5-149.7-18.8L-149.7-18.8z M-150.6,8.9l7.1,0l0-19.2l-7.1,0L-150.6,8.9z"/>
	</g>
	<g id="Group-18" transform="translate(127.649770, 16.275576)">
		<g id="Clip-17">
		</g>
		<defs>
			<filter id="Adobe_OpacityMaskFilter_5_" filterUnits="userSpaceOnUse" x="-150.9" y="-19.8" width="18.9" height="26">
				<feColorMatrix  type="matrix" values="1 0 0 0 0  0 1 0 0 0  0 0 1 0 0  0 0 0 1 0"/>
			</filter>
		</defs>
		<mask maskUnits="userSpaceOnUse" x="-150.9" y="-19.8" width="18.9" height="26" id="mask-17_1_">
			<g class="st11">
				<path id="path-16_1_" class="st1" d="M-146.7-18.8c-1.3,0.7-2.3,1.6-3.1,2.8l0,0c-0.7,1.2-1.1,2.6-1.1,4.1l0,0l0,18l8,0l0-8.9
					l9.7,0l0-6.1l-9.7,0l0-2.9c0-0.5,0.2-1,0.5-1.3l0,0c0.3-0.3,0.8-0.5,1.3-0.5l0,0l9.1,0l0-6.3l-10.3,0c0,0,0,0,0,0l0,0
					C-143.9-19.8-145.4-19.5-146.7-18.8"/>
			</g>
		</mask>
		
			<linearGradient id="Fill-16_1_" gradientUnits="userSpaceOnUse" x1="-823.8888" y1="359.4534" x2="-812.4557" y2="359.4534" gradientTransform="matrix(18.9417 0 0 -25.9965 15336.0557 9337.7217)">
			<stop  offset="0" style="stop-color:#FFB821"/>
			<stop  offset="1" style="stop-color:#00B156"/>
		</linearGradient>
		<path id="Fill-16" class="st12" d="M-146.7-18.8c-1.3,0.7-2.3,1.6-3.1,2.8l0,0c-0.7,1.2-1.1,2.6-1.1,4.1l0,0l0,18l8,0l0-8.9l9.7,0
			l0-6.1l-9.7,0l0-2.9c0-0.5,0.2-1,0.5-1.3l0,0c0.3-0.3,0.8-0.5,1.3-0.5l0,0l9.1,0l0-6.3l-10.3,0c0,0,0,0,0,0l0,0
			C-143.9-19.8-145.4-19.5-146.7-18.8"/>
	</g>
	<g id="Group-21" transform="translate(150.230415, 22.727189)">
		<g id="Clip-20">
		</g>
		<defs>
			<filter id="Adobe_OpacityMaskFilter_6_" filterUnits="userSpaceOnUse" x="-150.9" y="-19.9" width="21.3" height="20.2">
				<feColorMatrix  type="matrix" values="1 0 0 0 0  0 1 0 0 0  0 0 1 0 0  0 0 0 1 0"/>
			</filter>
		</defs>
		<mask maskUnits="userSpaceOnUse" x="-150.9" y="-19.9" width="21.3" height="20.2" id="mask-20_1_">
			<g class="st13">
				<path id="path-19_1_" class="st1" d="M-145.7-18.6c-1.6,0.9-2.9,2.1-3.8,3.7l0,0c-0.9,1.6-1.4,3.4-1.4,5.4l0,0
					c0,1.9,0.4,3.6,1.1,5.1l0,0c0.7,1.4,1.8,2.6,3,3.4l0,0c1.3,0.8,2.7,1.2,4.3,1.2l0,0c1,0,1.9-0.1,2.6-0.4l0,0
					c0.7-0.3,1.4-0.7,1.9-1.2l0,0c0.5-0.5,1-1.1,1.3-1.8l0,0l0.2,0l0,2.9l6.8,0l0-9.5c0-2-0.4-3.8-1.3-5.3l0,0
					c-0.9-1.5-2.1-2.7-3.7-3.6l0,0c-1.6-0.9-3.4-1.3-5.5-1.3l0,0c0,0,0,0,0,0l0,0C-142.2-19.9-144.1-19.5-145.7-18.6 M-140.2-6
					c-0.6,0-1.2-0.2-1.7-0.5l0,0c-0.5-0.3-0.9-0.8-1.2-1.4l0,0c-0.3-0.6-0.4-1.2-0.4-2l0,0c0-0.7,0.1-1.3,0.4-1.9l0,0
					c0.3-0.5,0.7-1,1.2-1.3l0,0c0.5-0.3,1.1-0.5,1.7-0.5l0,0c0.7,0,1.3,0.2,1.8,0.5l0,0c0.5,0.3,0.9,0.8,1.2,1.3l0,0
					c0.3,0.5,0.4,1.2,0.4,1.9l0,0c0,0.7-0.1,1.4-0.4,2l0,0c-0.3,0.6-0.7,1-1.2,1.4l0,0C-139-6.2-139.6-6-140.2-6L-140.2-6
					C-140.2-6-140.2-6-140.2-6"/>
			</g>
		</mask>
		
			<linearGradient id="Fill-19_1_" gradientUnits="userSpaceOnUse" x1="-850.1747" y1="349.0176" x2="-840.0161" y2="349.0176" gradientTransform="matrix(21.3183 0 0 -20.1632 17831.8652 7027.4541)">
			<stop  offset="0" style="stop-color:#FFB821"/>
			<stop  offset="1" style="stop-color:#00B156"/>
		</linearGradient>
		<path id="Fill-19" class="st14" d="M-145.7-18.6c-1.6,0.9-2.9,2.1-3.8,3.7l0,0c-0.9,1.6-1.4,3.4-1.4,5.4l0,0
			c0,1.9,0.4,3.6,1.1,5.1l0,0c0.7,1.4,1.8,2.6,3,3.4l0,0c1.3,0.8,2.7,1.2,4.3,1.2l0,0c1,0,1.9-0.1,2.6-0.4l0,0
			c0.7-0.3,1.4-0.7,1.9-1.2l0,0c0.5-0.5,1-1.1,1.3-1.8l0,0l0.2,0l0,2.9l6.8,0l0-9.5c0-2-0.4-3.8-1.3-5.3l0,0
			c-0.9-1.5-2.1-2.7-3.7-3.6l0,0c-1.6-0.9-3.4-1.3-5.5-1.3l0,0c0,0,0,0,0,0l0,0C-142.2-19.9-144.1-19.5-145.7-18.6 M-140.2-6
			c-0.6,0-1.2-0.2-1.7-0.5l0,0c-0.5-0.3-0.9-0.8-1.2-1.4l0,0c-0.3-0.6-0.4-1.2-0.4-2l0,0c0-0.7,0.1-1.3,0.4-1.9l0,0
			c0.3-0.5,0.7-1,1.2-1.3l0,0c0.5-0.3,1.1-0.5,1.7-0.5l0,0c0.7,0,1.3,0.2,1.8,0.5l0,0c0.5,0.3,0.9,0.8,1.2,1.3l0,0
			c0.3,0.5,0.4,1.2,0.4,1.9l0,0c0,0.7-0.1,1.4-0.4,2l0,0c-0.3,0.6-0.7,1-1.2,1.4l0,0C-139-6.2-139.6-6-140.2-6L-140.2-6
			C-140.2-6-140.2-6-140.2-6"/>
	</g>
	<g id="Group-24" transform="translate(176.958525, 23.188018)">
		<g id="Clip-23">
		</g>
		<defs>
			<filter id="Adobe_OpacityMaskFilter_7_" filterUnits="userSpaceOnUse" x="-150.8" y="-19.9" width="12.2" height="19.2">
				<feColorMatrix  type="matrix" values="1 0 0 0 0  0 1 0 0 0  0 0 1 0 0  0 0 0 1 0"/>
			</filter>
		</defs>
		<mask maskUnits="userSpaceOnUse" x="-150.8" y="-19.9" width="12.2" height="19.2" id="mask-23_1_">
			<g class="st15">
				<path id="path-22_1_" class="st1" d="M-149.2-18.3c-1.1,1.1-1.6,2.5-1.6,4.3l0,0l0,13.3l7.1,0l0-12.4c0-0.4,0.1-0.8,0.4-1l0,0
					c0.3-0.3,0.6-0.4,1-0.4l0,0l3.7,0l0-5.4l-6.2,0c0,0,0,0,0,0l0,0C-146.6-19.9-148.1-19.3-149.2-18.3"/>
			</g>
		</mask>
		
			<linearGradient id="Fill-22_1_" gradientUnits="userSpaceOnUse" x1="-864.2433" y1="347.6682" x2="-846.561" y2="347.6682" gradientTransform="matrix(12.2475 0 0 -19.2021 10265.6787 6665.6831)">
			<stop  offset="0" style="stop-color:#FFB821"/>
			<stop  offset="1" style="stop-color:#00B156"/>
		</linearGradient>
		<path id="Fill-22" class="st16" d="M-149.2-18.3c-1.1,1.1-1.6,2.5-1.6,4.3l0,0l0,13.3l7.1,0l0-12.4c0-0.4,0.1-0.8,0.4-1l0,0
			c0.3-0.3,0.6-0.4,1-0.4l0,0l3.7,0l0-5.4l-6.2,0c0,0,0,0,0,0l0,0C-146.6-19.9-148.1-19.3-149.2-18.3"/>
	</g>
	<g id="Group-27" transform="translate(193.778802, 22.727189)">
		<g id="Clip-26">
		</g>
		<defs>
			<filter id="Adobe_OpacityMaskFilter_8_" filterUnits="userSpaceOnUse" x="-150.8" y="-19.9" width="31.6" height="19.7">
				<feColorMatrix  type="matrix" values="1 0 0 0 0  0 1 0 0 0  0 0 1 0 0  0 0 0 1 0"/>
			</filter>
		</defs>
		<mask maskUnits="userSpaceOnUse" x="-150.8" y="-19.9" width="31.6" height="19.7" id="mask-26_1_">
			<g class="st17">
				<path id="path-25_1_" class="st1" d="M-146.4-18.8c-1.4,0.7-2.4,1.7-3.2,2.9l0,0c-0.8,1.3-1.2,2.8-1.2,4.5l0,0l0,11.2l7.1,0
					l0-10.7c0-0.5,0.1-0.9,0.3-1.3l0,0c0.2-0.4,0.5-0.7,0.9-0.9l0,0c0.4-0.2,0.8-0.4,1.4-0.4l0,0c0.5,0,1,0.1,1.4,0.4l0,0
					c0.4,0.2,0.7,0.6,0.9,0.9l0,0c0.2,0.4,0.3,0.8,0.3,1.3l0,0l0,10.7l7.1,0l0-10.7c0-0.5,0.1-0.9,0.3-1.3l0,0
					c0.2-0.4,0.5-0.7,0.9-0.9l0,0c0.4-0.2,0.8-0.4,1.4-0.4l0,0c0.5,0,1,0.1,1.4,0.4l0,0c0.4,0.2,0.7,0.6,0.9,0.9l0,0
					c0.2,0.4,0.3,0.8,0.3,1.3l0,0l0,10.7l7.1,0l0-11.2c0-1.7-0.4-3.2-1.1-4.5l0,0c-0.8-1.3-1.8-2.2-3.2-2.9l0,0c-1.4-0.7-3-1-4.9-1
					l0,0c-1,0-1.9,0.1-2.7,0.3l0,0c-0.8,0.2-1.5,0.4-2.2,0.7l0,0c-0.6,0.3-1.2,0.7-1.7,1.1l0,0l-0.1,0c-0.4-0.4-1-0.7-1.6-1.1l0,0
					c-0.6-0.3-1.4-0.6-2.2-0.7l0,0c-0.8-0.2-1.7-0.3-2.7-0.3l0,0c0,0,0,0,0,0l0,0C-143.5-19.9-145.1-19.5-146.4-18.8"/>
			</g>
		</mask>
		
			<linearGradient id="Fill-25_1_" gradientUnits="userSpaceOnUse" x1="-901.6385" y1="348.6164" x2="-894.7898" y2="348.6164" gradientTransform="matrix(31.6212 0 0 -19.7175 28174.9785 6863.8452)">
			<stop  offset="0" style="stop-color:#FFB821"/>
			<stop  offset="1" style="stop-color:#00B156"/>
		</linearGradient>
		<path id="Fill-25" class="st18" d="M-146.4-18.8c-1.4,0.7-2.4,1.7-3.2,2.9l0,0c-0.8,1.3-1.2,2.8-1.2,4.5l0,0l0,11.2l7.1,0l0-10.7
			c0-0.5,0.1-0.9,0.3-1.3l0,0c0.2-0.4,0.5-0.7,0.9-0.9l0,0c0.4-0.2,0.8-0.4,1.4-0.4l0,0c0.5,0,1,0.1,1.4,0.4l0,0
			c0.4,0.2,0.7,0.6,0.9,0.9l0,0c0.2,0.4,0.3,0.8,0.3,1.3l0,0l0,10.7l7.1,0l0-10.7c0-0.5,0.1-0.9,0.3-1.3l0,0
			c0.2-0.4,0.5-0.7,0.9-0.9l0,0c0.4-0.2,0.8-0.4,1.4-0.4l0,0c0.5,0,1,0.1,1.4,0.4l0,0c0.4,0.2,0.7,0.6,0.9,0.9l0,0
			c0.2,0.4,0.3,0.8,0.3,1.3l0,0l0,10.7l7.1,0l0-11.2c0-1.7-0.4-3.2-1.1-4.5l0,0c-0.8-1.3-1.8-2.2-3.2-2.9l0,0c-1.4-0.7-3-1-4.9-1
			l0,0c-1,0-1.9,0.1-2.7,0.3l0,0c-0.8,0.2-1.5,0.4-2.2,0.7l0,0c-0.6,0.3-1.2,0.7-1.7,1.1l0,0l-0.1,0c-0.4-0.4-1-0.7-1.6-1.1l0,0
			c-0.6-0.3-1.4-0.6-2.2-0.7l0,0c-0.8-0.2-1.7-0.3-2.7-0.3l0,0c0,0,0,0,0,0l0,0C-143.5-19.9-145.1-19.5-146.4-18.8"/>
	</g>
	<g id="Group-30" transform="translate(32.258065, 16.275576)">
		<g id="Clip-29">
		</g>
		<defs>
			<filter id="Adobe_OpacityMaskFilter_9_" filterUnits="userSpaceOnUse" x="-150.8" y="-19.8" width="6.9" height="11.8">
				<feColorMatrix  type="matrix" values="1 0 0 0 0  0 1 0 0 0  0 0 1 0 0  0 0 0 1 0"/>
			</filter>
		</defs>
		<mask maskUnits="userSpaceOnUse" x="-150.8" y="-19.8" width="6.9" height="11.8" id="mask-29_1_">
			<g class="st19">
				<path id="path-28_1_" class="st1" d="M-149.9-18.9c-0.6,0.6-0.9,1.4-0.9,2.4l0,0c0,0.3,0,0.7,0.1,1.1l0,0l1.1,5.4
					c0.1,0.6,0.4,1.1,0.7,1.5l0,0c0.4,0.3,0.9,0.5,1.4,0.5l0,0c0.6,0,1.1-0.2,1.5-0.5l0,0c0.4-0.3,0.6-0.8,0.8-1.5l0,0l1.1-5.4
					c0.1-0.4,0.1-0.7,0.1-1.1l0,0c0-1-0.3-1.8-0.9-2.4l0,0c-0.6-0.6-1.5-0.9-2.5-0.9l0,0C-148.4-19.8-149.3-19.5-149.9-18.9"/>
			</g>
		</mask>
		
			<linearGradient id="Fill-28_1_" gradientUnits="userSpaceOnUse" x1="-670.5345" y1="343.0504" x2="-659.8557" y2="340.6915" gradientTransform="matrix(6.8961 0 0 -11.7514 4467.8364 4014.0005)">
			<stop  offset="0" style="stop-color:#FFB821"/>
			<stop  offset="1" style="stop-color:#00B156"/>
		</linearGradient>
		<path id="Fill-28" class="st20" d="M-149.9-18.9c-0.6,0.6-0.9,1.4-0.9,2.4l0,0c0,0.3,0,0.7,0.1,1.1l0,0l1.1,5.4
			c0.1,0.6,0.4,1.1,0.7,1.5l0,0c0.4,0.3,0.9,0.5,1.4,0.5l0,0c0.6,0,1.1-0.2,1.5-0.5l0,0c0.4-0.3,0.6-0.8,0.8-1.5l0,0l1.1-5.4
			c0.1-0.4,0.1-0.7,0.1-1.1l0,0c0-1-0.3-1.8-0.9-2.4l0,0c-0.6-0.6-1.5-0.9-2.5-0.9l0,0C-148.4-19.8-149.3-19.5-149.9-18.9"/>
	</g>
	<g id="Group-49" transform="translate(189.170507, 0.146544)">
		<g id="Group-19" transform="translate(0.050392, 0.023502)">
			<path id="Fill-31" class="st21" d="M-133.7-14.6l-2.7,0c-1.9,0-3.7-0.7-4.4-1.5c-0.9-1-1.7-2-2.3-3c1,0.3,2,0.6,3.1,0.7
				c1.9,0.3,3.7,0.9,4.5,1.7c0.3,0.3,0.6,0.7,0.9,1C-134.4-15.3-134.1-14.9-133.7-14.6"/>
			<path id="Fill-33" class="st21" d="M-133.7-14.2l-2.7,0c-1.9,0-3.7,0.2-4.9,0.7c-1.3,0.6-2.7,1.1-4.2,1.4c1.5,0.5,2.9,0.8,4.4,1
				c2.6,0.4,4.8-0.2,5.6-1.1c0.3-0.3,0.6-0.7,0.9-1C-134.3-13.5-134.1-13.8-133.7-14.2"/>
			<path id="Fill-35" class="st21" d="M-125.6-13c-0.8-0.4-1.7-0.7-2.6-0.9c-1.9-0.5-3.6-1-4.6-1.8c-0.6-0.4-1.2-0.8-1.8-1.2
				c-0.3-0.2-0.6-0.4-0.8-0.6l-0.8-0.6l1.9,0l1.1,0c0.4,0,0.7,0,1.1,0c0.3,0,0.6,0,1,0.1c0.3,0.1,0.6,0.1,0.9,0.2
				c0.6,0.1,1.1,0.3,1.6,0.6c0.5,0.2,0.9,0.5,1.2,0.8c0.2,0.1,0.3,0.3,0.4,0.4c0.1,0.1,0.2,0.3,0.3,0.4c0.2,0.4,0.4,0.9,0.6,1.3
				C-125.9-13.9-125.7-13.4-125.6-13"/>
			<path id="Fill-37" class="st21" d="M-125.7-12.6c-0.8-0.4-1.7-0.7-2.5-0.9c-1.9-0.5-3.7-0.2-4.6,0.5c-0.5,0.4-1.1,0.8-1.6,1.2
				c-0.2,0.2-0.6,0.4-0.9,0.6l-0.9,0.6l2,0l0.8,0c0.3,0,0.5,0,0.8,0c0.2,0,0.5,0,0.7,0c0.2,0,0.5,0,0.7,0c0.4,0,0.8,0,1.2-0.1
				c0.4-0.1,0.7-0.1,1.1-0.2c0.2-0.1,0.3-0.1,0.4-0.2c0.1-0.1,0.3-0.1,0.4-0.2c0.4-0.2,0.7-0.5,1.1-0.7
				C-126.6-12.2-126.2-12.4-125.7-12.6"/>
			<path id="Fill-39" class="st21" d="M-119.4-7.5c-0.5-0.8-1-1.5-1.6-2.2c-1.3-1.5-2.6-2.8-3.2-3.9c-0.7-1.3-1.7-2.5-2.8-3.7
				c1.5,0.4,3,1,4.4,1.8c1.2,0.7,2.2,1.7,2.9,2.6c0.2,0.2,0.3,0.5,0.4,0.7c0.1,0.2,0.2,0.5,0.3,0.7c0.1,0.4,0.2,0.8,0.2,1.1
				c0,0.5-0.1,1-0.2,1.5C-119.1-8.4-119.2-7.9-119.4-7.5"/>
			<path id="Fill-41" class="st21" d="M-119.7-7.3c-0.5-0.8-1-1.5-1.6-2.1c-0.3-0.4-0.7-0.7-1-0.9c-0.2-0.1-0.4-0.2-0.6-0.3
				c-0.2-0.1-0.4-0.2-0.6-0.3c-0.4-0.1-0.7-0.3-1.1-0.3c-0.3,0-0.6-0.1-0.9,0c-1.3,0.2-2.5,0.7-3.5,1.2c1,0.3,1.9,0.6,2.7,1.1
				c0.7,0.4,1.4,0.8,2.1,1c0.2,0.1,0.3,0.1,0.5,0.2c0.2,0.1,0.3,0.1,0.5,0.1c0.3,0.1,0.6,0.1,0.9,0.1c0.4,0,0.9,0,1.3,0
				C-120.6-7.4-120.2-7.4-119.7-7.3"/>
			<path id="Fill-43" class="st21" d="M-117.1,0.5c0-0.9-0.1-1.8-0.3-2.7c-0.4-1.9-0.7-3.7-0.6-4.9c0.1-1.5,0.1-3-0.3-4.6
				c1.1,1.2,2,2.6,2.7,4c0.6,1.3,0.9,2.6,0.9,3.6c0,1.1-0.2,1.9-0.5,2.4C-115.8-0.9-116.4-0.2-117.1,0.5"/>
			<path id="Fill-45" class="st21" d="M-117.5,0.5c0-0.9-0.1-1.8-0.3-2.6c-0.4-1.9-1.5-3.4-2.5-3.8c-1.2-0.5-2.4-0.9-3.5-0.9
				c0.6,0.7,1.1,1.5,1.6,2.4c0.7,1.5,1.6,3,2.6,3.5C-118.9-0.6-118.2-0.1-117.5,0.5"/>
			<path id="Fill-47" class="st21" d="M-145.7-17.7c-0.9-0.4-1.7-0.8-2.5-1.1c-0.8-0.4-1.5-0.7-2.2-0.9l-0.6-0.2l0.1,0.7
				c0.2,0.7,0.6,1.5,1.3,2.3c0.7,0.8,1.6,1.4,2.6,2c0.3,0.2,0.7,0.3,1,0.5c0.3,0.2,0.7,0.3,1,0.4c0.4,0.1,0.8,0.2,1.1,0.3
				c0.4,0,0.7,0,0.9,0c0.4-0.1,0.8-0.2,1.2-0.3l1.1-0.4l-0.9-0.7c-0.3-0.2-0.6-0.5-0.8-0.8c-0.2-0.2-0.4-0.3-0.7-0.5
				c-0.3-0.1-0.6-0.3-0.9-0.4c-0.3-0.1-0.6-0.2-0.9-0.3C-145.2-17.4-145.5-17.5-145.7-17.7"/>
			
				<linearGradient id="Fill-50_1_" gradientUnits="userSpaceOnUse" x1="-886.7721" y1="357.4306" x2="-885.7721" y2="357.4306" gradientTransform="matrix(25.3465 0 0 -11.2228 22327.9629 4003.9006)">
				<stop  offset="0" style="stop-color:#FFB821"/>
				<stop  offset="1" style="stop-color:#00B156"/>
			</linearGradient>
			<path id="Fill-50" class="st22" d="M-136.5-5.3c10.3,1,13.2,3.4,13.2,3.4l0,0c0,0-2.3-6.5-13.3-7l0,0c-10.6-0.4-11.9-4-12-4.3
				l0,0C-148.5-12.7-146.5-6.3-136.5-5.3"/>
			
				<linearGradient id="Fill-53_1_" gradientUnits="userSpaceOnUse" x1="-878.4047" y1="318.4359" x2="-877.4047" y2="318.4359" gradientTransform="matrix(18.4643 0 0 -5.0498 16073.5762 1603.0725)">
				<stop  offset="0" style="stop-color:#FFB821"/>
				<stop  offset="1" style="stop-color:#00B156"/>
			</linearGradient>
			<path id="Fill-53" class="st23" d="M-136.8-2.5c6.4,0.1,9.7-0.3,9.7-0.3l0,0c0,0-4.4-1.1-11.2-2l0,0c-5.2-0.7-7.3-2.7-7.3-2.7
				l0,0C-145.5-7.5-143.2-2.6-136.8-2.5"/>
		</g>
	</g>
	<g id="Group-52" transform="translate(191.474654, 7.058986)">
		<g id="Clip-51">
		</g>
	</g>
	<g id="Group-55" transform="translate(194.470046, 12.588940)">
		<g id="Clip-54">
		</g>
	</g>
</g>
</svg>
