<?xml version="1.0" encoding="UTF-8"?>
<svg width="97px" height="70px" viewBox="0 0 97 70" version="1.1" xmlns="http://www.w3.org/2000/svg" xmlns:xlink="http://www.w3.org/1999/xlink">
    <title>Group 27</title>
    <g id="Page-1" stroke="none" stroke-width="1" fill="none" fill-rule="evenodd">
        <g id="ofb_home-v3-copy-7" transform="translate(-1441.000000, -571.000000)">
            <g id="Group-27" transform="translate(1441.000000, 571.000000)">
                <polygon id="Path" fill="#FF9797" points="9.02298851 12.5287356 8.09474051 12.425984 8.03204458 12.9832811 8.96551724 13.0860327"></polygon>
                <polygon id="Path" fill="#FF9797" points="6.4332985 12.2187391 6.36015326 12.7742947 7.29188436 12.8927203 7.35980495 12.3389063"></polygon>
                <polygon id="Path" fill="#FF9797" points="4.78056426 11.9871125 4.69871125 12.539185 5.62695925 12.6732846 5.70532915 12.1194706"></polygon>
                <path d="M17.3371648,61.1633577 C17.3371648,62.8718217 18.6729363,64.2563567 20.3221874,64.2563567 L80.0417973,64.2563567 C81.6893069,64.2563567 83.0268199,62.8718217 83.0268199,61.1633577 L83.0268199,11.4942529 L17.3371648,11.4942529 L17.3371648,61.1633577 Z" id="Path" fill="#FF9797" fill-rule="nonzero"></path>
                <rect id="Rectangle" fill="#184655" fill-rule="nonzero" x="4.46185998" y="5.7784744" width="92.0707071" height="64.2215256" rx="26.16"></rect>
                <ellipse id="Oval" fill="#F99C00" fill-rule="nonzero" cx="34.4740509" cy="19.7962382" rx="11.9418321" ry="11.8216649"></ellipse>
                <ellipse id="Oval" fill="#FEC230" fill-rule="nonzero" cx="34.4740509" cy="19.7962382" rx="10.0296064" ry="9.92859631"></ellipse>
                <path d="M37.5130617,21.4629049 C37.5194682,21.8315563 37.4470278,22.1973211 37.3005921,22.5357018 C37.1614029,22.8514375 36.9551957,23.1331155 36.6962731,23.3611982 C36.417874,23.6015918 36.098012,23.7892598 35.7523511,23.9150122 C35.3600631,24.0584796 34.9498104,24.1469769 34.5332637,24.1779868 L34.5332637,25.6600488 C34.5289202,25.6936621 34.5182856,25.7261568 34.5019157,25.7558342 C34.4791419,25.7880893 34.4468769,25.8124402 34.4096134,25.8254963 C34.3535119,25.847286 34.295068,25.8624814 34.235458,25.8707767 C34.1390903,25.8839164 34.0418657,25.8897382 33.9446186,25.8881923 C33.8246827,25.8899666 33.7047773,25.8829818 33.5858586,25.8672936 C33.5118451,25.8586361 33.4395997,25.8386659 33.3716475,25.8080808 C33.32633,25.7894154 33.290088,25.7537983 33.2706374,25.7088123 C33.2546554,25.6641626 33.2510449,25.616022 33.2601881,25.569488 L33.2601881,24.1657959 C33.069802,24.1394787 32.8808869,24.1034395 32.6941832,24.0578196 C32.5309288,24.0182307 32.3698975,23.9699795 32.2117729,23.9132706 C32.0839043,23.8666445 31.9588786,23.8125636 31.8373389,23.7513062 C31.7506847,23.7088232 31.6708551,23.6536469 31.6004876,23.5876001 C31.5399041,23.5220052 31.4994079,23.4404084 31.4838036,23.3524904 C31.4569301,23.2007737 31.4452619,23.046754 31.4489725,22.8927203 C31.4489725,22.7359805 31.4489725,22.6071055 31.4629049,22.5043539 C31.4677122,22.4240393 31.4841375,22.3448458 31.5116684,22.2692442 C31.5275039,22.2225232 31.5580565,22.1821937 31.5987461,22.1543016 C31.636245,22.1343354 31.6781751,22.1241524 31.7206548,22.1246952 C31.8165619,22.1365544 31.9080741,22.1718435 31.9871125,22.2274469 C32.1323489,22.3110194 32.2817342,22.3871653 32.4346917,22.4555904 C32.6480613,22.5496561 32.8688259,22.6259626 33.0947405,22.6837339 C33.3930637,22.758111 33.6999214,22.7926617 34.0073145,22.7864855 C34.5524208,22.7864855 34.9582027,22.687217 35.226402,22.4851968 C35.4831222,22.3010657 35.6318569,22.0016391 35.6234761,21.6858238 C35.6301546,21.4889214 35.568636,21.295753 35.4493208,21.138976 C35.321958,20.9855957 35.1665029,20.8579215 34.9912922,20.7628004 C34.7844261,20.6467653 34.5676127,20.5494324 34.3434343,20.471961 C34.1048415,20.3866249 33.8575409,20.2978056 33.6067572,20.1985371 C33.353562,20.1020234 33.1069032,19.9891654 32.8683386,19.8606757 C32.6301852,19.7333616 32.4114421,19.5726764 32.2187391,19.3834901 C32.0211458,19.1837913 31.8649043,18.9470617 31.758969,18.6868687 C31.636638,18.3753802 31.5774393,18.0426834 31.5848137,17.7081156 C31.5802517,17.3845207 31.6394282,17.0631921 31.758969,16.7624521 C31.8730114,16.4836142 32.0438199,16.231553 32.2605364,16.0222919 C32.4929382,15.7975528 32.7667922,15.6201096 33.0668757,15.4998258 C33.4150448,15.3608242 33.7807425,15.2705719 34.153605,15.2316266 L34.1170324,13.9324277 C34.120518,13.899173 34.131216,13.867079 34.1483804,13.8383838 C34.1714437,13.8071364 34.2028233,13.7829983 34.2389411,13.7687217 C34.2946255,13.7456646 34.3532335,13.7304266 34.4130965,13.7234413 C34.6301841,13.7004591 34.8490914,13.7004591 35.066179,13.7234413 C35.1419894,13.7314823 35.2160502,13.7514669 35.2856148,13.7826541 C35.3311662,13.8003507 35.3671868,13.8363712 35.3848833,13.8819227 C35.3992772,13.9269426 35.4063336,13.9739852 35.405782,14.021247 L35.4423546,15.2542668 C35.5729711,15.2716823 35.7105538,15.2978056 35.8551028,15.3291536 C35.9923463,15.3600864 36.1278068,15.3984572 36.2608847,15.4440961 C36.3862766,15.487635 36.5012191,15.5346569 36.6091954,15.5816789 C36.686584,15.6142623 36.7583018,15.6589389 36.8216649,15.7140369 C36.8576625,15.7480523 36.8882074,15.7874082 36.9122257,15.830721 C36.9355795,15.8769844 36.9525685,15.9261939 36.9627308,15.9770115 C36.9747664,16.0455771 36.9829067,16.1147696 36.9871125,16.1842564 C36.9871125,16.2643678 36.9871125,16.3584117 36.9871125,16.4646465 C36.9871125,16.6074538 36.9871125,16.7258795 36.9766632,16.8129572 C36.9730191,16.8845566 36.9601411,16.9553853 36.938349,17.0236851 C36.9264182,17.061155 36.9047879,17.094802 36.8756531,17.1212121 C36.8506258,17.1368264 36.8215449,17.1447024 36.7920585,17.1438523 C36.6979305,17.1335462 36.6070869,17.103265 36.5256008,17.0550331 C36.3855595,16.9833933 36.2419887,16.9188736 36.0954371,16.8617207 C35.9040308,16.7850922 35.7080125,16.7205283 35.5085336,16.6684082 C35.2698845,16.6055358 35.0238577,16.5750753 34.7770812,16.5778474 C34.5677202,16.5745977 34.3587968,16.5980064 34.1553466,16.6475096 C34.004397,16.6846 33.8619334,16.750216 33.7356322,16.840822 C33.6332118,16.9189179 33.5518192,17.0212571 33.4987809,17.1386277 C33.4463815,17.2588574 33.4202564,17.3888894 33.4221526,17.5200279 C33.4153301,17.7169501 33.4768637,17.9101658 33.5963079,18.0668757 C33.7236447,18.223963 33.8819199,18.3531914 34.0613027,18.4465343 C34.2725624,18.5610216 34.4927119,18.6582834 34.7196099,18.7373737 C34.9634274,18.8244514 35.2124695,18.9167537 35.4667363,19.0142807 C35.7220945,19.1124236 35.9720682,19.2240398 36.2156043,19.348659 C36.4560638,19.4718016 36.6762987,19.6309581 36.8686869,19.82062 C37.0654268,20.0143883 37.2227455,20.2444521 37.3319401,20.4980843 C37.4589811,20.803528 37.520678,21.1321825 37.5130617,21.4629049 Z" id="Path" fill="#FFFFFF" fill-rule="nonzero"></path>
                <ellipse id="Oval" fill="#F99C00" fill-rule="nonzero" cx="54.2180425" cy="11.8216649" rx="11.9418321" ry="11.8216649"></ellipse>
                <ellipse id="Oval" fill="#FEC230" fill-rule="nonzero" cx="54.2180425" cy="11.8216649" rx="10.0296064" ry="9.92859631"></ellipse>
                <path d="M57.2570533,13.4883316 C57.262715,13.8569161 57.1903053,14.2225258 57.0445838,14.5611285 C56.9047711,14.8765038 56.6986554,15.1580567 56.4402647,15.3866249 C56.1615951,15.6266404 55.8418056,15.8142659 55.4963427,15.9404389 C55.1040113,16.0837561 54.6937797,16.1722489 54.2772553,16.2034134 L54.2772553,17.6854754 C54.274507,17.7194295 54.2637652,17.7522518 54.2459073,17.7812609 C54.224413,17.8140047 54.1925083,17.8385468 54.1553466,17.850923 C54.0992451,17.8727126 54.0408012,17.8879081 53.9811912,17.8962034 C53.8848235,17.9093431 53.7875989,17.9151649 53.6903518,17.9136189 C53.5698372,17.9153854 53.4493534,17.9084008 53.3298502,17.8927203 C53.2563877,17.8841065 53.1847095,17.8641306 53.1173807,17.8335075 C53.0711691,17.8162203 53.0344588,17.7801429 53.0163706,17.7342389 C52.998741,17.6899544 52.9950944,17.6413334 53.0059213,17.5949147 L53.0059213,16.1912226 C52.8155087,16.1650671 52.6265852,16.1290263 52.4399164,16.0832463 C52.276662,16.0436574 52.1156307,15.9954062 51.9575061,15.9386973 C51.8296375,15.8920711 51.7046118,15.8379902 51.5830721,15.7767328 C51.4961697,15.733773 51.4158314,15.6786504 51.3444793,15.6130268 C51.2838592,15.5476786 51.2438748,15.4658921 51.2295367,15.3779171 C51.2026633,15.2262003 51.1909951,15.0721807 51.1947057,14.918147 C51.1947057,14.7614072 51.1947057,14.6325322 51.2086381,14.5297806 C51.2125796,14.4493532 51.2290315,14.3700315 51.2574016,14.2946708 C51.2732371,14.2479499 51.3037897,14.2076204 51.3444793,14.1797283 C51.3818953,14.1595451 51.4238825,14.1493482 51.466388,14.1501219 C51.5622951,14.1619811 51.6538073,14.1972702 51.7328457,14.2528736 C51.877889,14.3368018 52.0272931,14.4129572 52.1804249,14.4810171 C52.3937945,14.5750828 52.6145591,14.6513893 52.8404737,14.7091606 C53.138764,14.7837199 53.4456461,14.8182735 53.7530477,14.8119122 C54.298154,14.8119122 54.7039359,14.7126437 54.9721351,14.5106235 C55.2288554,14.3264923 55.3775901,14.0270657 55.3692093,13.7112504 C55.3758878,13.5143481 55.3143692,13.3211796 55.195054,13.1644026 C55.0674221,13.0112931 54.9120228,12.8836647 54.7370254,12.7882271 C54.5301593,12.672192 54.3133458,12.5748591 54.0891675,12.4973877 C53.8488332,12.4120515 53.6032741,12.3232323 53.3507489,12.2239638 C53.0982623,12.1271062 52.8522046,12.014257 52.6140718,11.8861024 C52.3768822,11.7580949 52.1588077,11.5974701 51.9662139,11.4089168 C51.7697384,11.2086649 51.6141636,10.9720491 51.5081853,10.7122954 C51.3858543,10.4008069 51.3266556,10.0681101 51.33403,9.73354232 C51.3287315,9.40988574 51.3879344,9.08841394 51.5081853,8.78787879 C51.6216675,8.50772266 51.7925179,8.25441324 52.0097527,8.04423546 C52.2431075,7.81986032 52.5174547,7.64248068 52.8178335,7.52176942 C53.1658718,7.38236097 53.5316269,7.29209448 53.9045629,7.25357018 L53.8679902,5.93695576 C53.8701465,5.9039681 53.880959,5.87213141 53.8993382,5.84465343 C53.9224016,5.81340599 53.9537811,5.78926789 53.989899,5.77499129 C54.0452598,5.75098227 54.1040102,5.73570716 54.1640543,5.7297109 C54.2618216,5.71953314 54.3600854,5.7148816 54.4583769,5.71577847 C54.578885,5.71430235 54.6993481,5.72128572 54.8188784,5.73667712 C54.8946888,5.74471808 54.9687496,5.76470274 55.0383142,5.79588993 C55.0832054,5.81398904 55.1185394,5.849954 55.1358412,5.89515848 C55.150235,5.9401784 55.1572914,5.98722103 55.1567398,6.03448276 L55.195054,7.26750261 C55.3256705,7.28491815 55.4632532,7.31104145 55.6078022,7.34238941 C55.7449874,7.37355126 55.8804358,7.4119186 56.0135841,7.45733194 C56.138976,7.50087078 56.2521769,7.54789272 56.3618948,7.59491466 C56.439776,7.62756968 56.512057,7.67223113 56.5761059,7.72727273 C56.6121035,7.76128812 56.6426484,7.80064401 56.6666667,7.84395681 C56.6900675,7.89003996 56.7065009,7.9393403 56.7154302,7.9902473 C56.7291841,8.05855023 56.7373385,8.12786211 56.7398119,8.19749216 C56.7398119,8.27760362 56.7398119,8.37164751 56.7398119,8.47788227 C56.7398119,8.62068966 56.7398119,8.73911529 56.7398119,8.82619296 C56.7361678,8.89779239 56.7232898,8.96862114 56.7014977,9.03692093 C56.6896452,9.07485597 56.6673065,9.10866587 56.6370603,9.13444793 C56.6122107,9.1504658 56.5830023,9.15837641 56.5534657,9.15708812 C56.4599028,9.14669776 56.3696448,9.11641384 56.2887496,9.0682689 C56.1720655,9.00731452 56.0275165,8.94287705 55.8585859,8.87495646 C55.6620798,8.80646335 55.4613908,8.75061945 55.2577499,8.70776733 C55.0196718,8.64500843 54.7742357,8.61454857 54.528039,8.61720655 C54.318678,8.61395678 54.1097547,8.63736555 53.9063044,8.68686869 C53.7551117,8.72415944 53.612579,8.7903987 53.48659,8.88192268 C53.3836353,8.95991235 53.3016524,9.06224134 53.2479972,9.17972832 C53.1964434,9.30022243 53.1703548,9.43007284 53.1713689,9.56112853 C53.1646904,9.75803089 53.226209,9.95119933 53.3455242,10.1079763 C53.4747406,10.2622928 53.6341706,10.388533 53.8140021,10.4789272 C54.0248127,10.5931022 54.2443582,10.6903544 54.4705677,10.7697666 C54.7161268,10.8568443 54.9651689,10.943922 55.2194357,11.0466736 C55.4750974,11.1440839 55.7251105,11.2557177 55.9683037,11.3810519 C56.2082196,11.5050801 56.4283279,11.664145 56.6213863,11.8530129 C56.8179135,12.0495738 56.9741017,12.2826729 57.0811564,12.539185 C57.2042748,12.840152 57.2641486,13.1632332 57.2570533,13.4883316 L57.2570533,13.4883316 Z" id="Path" fill="#FFFFFF" fill-rule="nonzero"></path>
                <ellipse id="Oval" fill="#F99C00" fill-rule="nonzero" cx="70.1758969" cy="19.7962382" rx="11.9418321" ry="11.8216649"></ellipse>
                <ellipse id="Oval" fill="#FEC230" fill-rule="nonzero" cx="70.1758969" cy="19.7962382" rx="10.0296064" ry="9.92859631"></ellipse>
                <path d="M73.2149077,21.4629049 C73.2211344,21.8321031 73.1487065,22.1983982 73.0024382,22.5374434 C72.8627437,22.852386 72.6565923,23.1333935 72.3981191,23.3611982 C72.11972,23.6015918 71.7998581,23.7892598 71.4541971,23.9150122 C71.0619091,24.0584796 70.6516564,24.1469769 70.2351097,24.1779868 L70.2351097,25.6600488 C70.2310208,25.6937191 70.2203706,25.7262613 70.2037618,25.7558342 C70.1818267,25.7888901 70.1492631,25.8134664 70.1114594,25.8254963 C70.0553579,25.847286 69.9969141,25.8624814 69.9373041,25.8707767 C69.8409363,25.8839164 69.7437118,25.8897382 69.6464646,25.8881923 C69.5265287,25.8899666 69.4066233,25.8829818 69.2877046,25.8672936 C69.2139598,25.8582733 69.14185,25.8389267 69.0734936,25.8098224 C69.0283604,25.7899923 68.9923135,25.7539454 68.9724835,25.7088123 C68.9565015,25.6641626 68.9528909,25.616022 68.9620341,25.569488 L68.9620341,24.1657959 C68.7716481,24.1394787 68.5827329,24.1034395 68.3960293,24.0578196 C68.2327748,24.0182307 68.0717436,23.9699795 67.9136189,23.9132706 C67.7857504,23.8666445 67.6607247,23.8125636 67.539185,23.7513062 C67.4525307,23.7088232 67.3727012,23.6536469 67.3023337,23.5876001 C67.2417501,23.5220052 67.201254,23.4404084 67.1856496,23.3524904 C67.1586951,23.2007839 67.1470264,23.0467561 67.1508185,22.8927203 C67.1508185,22.7359805 67.1508185,22.6071055 67.164751,22.5043539 C67.1695582,22.4240393 67.1859836,22.3448458 67.2135145,22.2692442 C67.2293403,22.222982 67.2599371,22.1832061 67.3005921,22.1560432 C67.3376239,22.1347078 67.3797707,22.1238701 67.4225009,22.1246952 C67.5184079,22.1365544 67.6099202,22.1718435 67.6889586,22.2274469 C67.8338148,22.3117187 67.9832378,22.3878838 68.1365378,22.4555904 C68.3496049,22.5504247 68.5704352,22.626754 68.7965866,22.6837339 C69.0949607,22.7579845 69.4017253,22.7931102 69.7091606,22.7882271 C70.2542668,22.7882271 70.6600488,22.687217 70.928248,22.4851968 C71.1849682,22.3010657 71.333703,22.0016391 71.3253222,21.6858238 C71.3320007,21.4889214 71.270482,21.295753 71.1511668,21.138976 C71.023804,20.9855957 70.868349,20.8579215 70.6931383,20.7628004 C70.4859151,20.6474758 70.2691651,20.5501714 70.0452804,20.471961 C69.8066876,20.3866249 69.559387,20.2978056 69.3086033,20.1985371 C69.0554081,20.1020234 68.8087493,19.9891654 68.5701846,19.8606757 C68.3316688,19.7339377 68.1128469,19.5731945 67.9205852,19.3834901 C67.7229919,19.1837913 67.5667503,18.9470617 67.460815,18.6868687 C67.3384841,18.3753802 67.2792853,18.0426834 67.2866597,17.7081156 C67.2820977,17.3845207 67.3412743,17.0631921 67.460815,16.7624521 C67.5748575,16.4836142 67.745666,16.231553 67.9623824,16.0222919 C68.1947842,15.7975528 68.4686383,15.6201096 68.7687217,15.4998258 C69.1168908,15.3608242 69.4825885,15.2705719 69.8554511,15.2316266 L69.8188784,13.9324277 C69.8226789,13.8992419 69.8333553,13.8672127 69.8502264,13.8383838 C69.8732898,13.8071364 69.9046693,13.7829983 69.9407872,13.7687217 C69.9964715,13.7456646 70.0550795,13.7304266 70.1149425,13.7234413 C70.3320301,13.7004591 70.5509375,13.7004591 70.7680251,13.7234413 C70.8438355,13.7314823 70.9178963,13.7514669 70.9874608,13.7826541 C71.0330122,13.8003507 71.0690328,13.8363712 71.0867294,13.8819227 C71.1011232,13.9269426 71.1081796,13.9739852 71.107628,14.021247 L71.1442006,15.2542668 C71.2748171,15.2734239 71.4123999,15.2978056 71.5569488,15.3308952 C71.6943584,15.3604522 71.8298641,15.3982543 71.9627308,15.4440961 C72.0881226,15.487635 72.2030651,15.5346569 72.3110414,15.5816789 C72.38843,15.6142623 72.4601479,15.6589389 72.523511,15.7140369 C72.5595086,15.7480523 72.5900535,15.7874082 72.6140718,15.830721 C72.6374255,15.8769844 72.6544145,15.9261939 72.6645768,15.9770115 C72.6766125,16.0455771 72.6847528,16.1147696 72.6889586,16.1842564 C72.6889586,16.2643678 72.6889586,16.3584117 72.6889586,16.4646465 C72.6889586,16.6074538 72.6889586,16.7258795 72.6785092,16.8129572 C72.6748651,16.8845566 72.6619872,16.9553853 72.6401951,17.0236851 C72.6282642,17.061155 72.606634,17.094802 72.5774991,17.1212121 C72.5526203,17.1373439 72.5235549,17.1458213 72.4939046,17.1455939 C72.3997023,17.1344935 72.3089039,17.1036339 72.2274469,17.0550331 C72.1107628,16.9958203 71.9679554,16.9296412 71.7972832,16.8617207 C71.6058768,16.7850922 71.4098585,16.7205283 71.2103797,16.6684082 C70.9717305,16.6055358 70.7257038,16.5750753 70.4789272,16.5778474 C70.2695662,16.5745977 70.0606429,16.5980064 69.8571926,16.6475096 C69.7058661,16.6844196 69.5632624,16.7506919 69.4374782,16.8425636 C69.3342594,16.9198409 69.252688,17.022405 69.200627,17.1403692 C69.1480566,17.2599319 69.1219184,17.3894348 69.1239986,17.5200279 C69.1171761,17.7169501 69.1787098,17.9101658 69.298154,18.0668757 C69.4258735,18.2240383 69.5840377,18.3537685 69.7631487,18.4482759 C69.9748155,18.5614439 70.1949056,18.6580972 70.4214559,18.7373737 C70.6652734,18.826193 70.9143156,18.9115291 71.1685824,19.0142807 C71.4242704,19.1122856 71.6742827,19.2245005 71.9174504,19.3504006 C72.1582133,19.4723222 72.3785423,19.630959 72.5705329,19.82062 C72.7672728,20.0143883 72.9245915,20.2444521 73.0337861,20.4980843 C73.1608272,20.803528 73.2225241,21.1321825 73.2149077,21.4629049 L73.2149077,21.4629049 Z" id="Path" fill="#FFFFFF" fill-rule="nonzero"></path>
                <rect id="Rectangle" fill="#355389" fill-rule="nonzero" x="11.1912226" y="21.1198189" width="81.1825148" height="45.2176942" rx="6"></rect>
                <path d="M3.50226402,44.7840474 L44.8066876,44.7840474 C46.7399727,44.7840474 48.30721,46.3512847 48.30721,48.2845698 L48.30721,59.7526994 C48.30721,61.6869464 46.739193,63.2549634 44.804946,63.2549634 L3.50052247,63.2549634 C1.56723729,63.2549634 -9.36244546e-14,61.6877261 -9.36244546e-14,59.754441 L-9.36244546e-14,48.2863114 C-9.36244546e-14,46.3520644 1.56801701,44.7840474 3.50226402,44.7840474 Z" id="Path" fill="#3C8F7C" fill-rule="nonzero"></path>
                <rect id="Rectangle" fill="#FBBE17" fill-rule="nonzero" x="39.6046674" y="48.8888889" width="5.0226402" height="10.7506095" rx="2.5113201"></rect>
                <polygon id="Path" fill="#FFFFFF" fill-rule="nonzero" points="78.7112504 14.8815744 77.0846395 15.7715082 78.7112504 16.661442 79.6011843 18.2880529 80.4911181 16.661442 82.117729 15.7715082 80.4911181 14.8815744 79.6011843 13.2549634"></polygon>
                <polygon id="Path" fill="#FFFFFF" fill-rule="nonzero" points="74.7683734 17.7725531 73.826193 18.2880529 74.7683734 18.8035528 75.2838732 19.7457332 75.799373 18.8035528 76.7398119 18.2880529 75.799373 17.7725531 75.2838732 16.8303727"></polygon>
                <polygon id="Path" fill="#FFFFFF" fill-rule="nonzero" points="28.9132706 10.440613 27.2866597 11.3305468 28.9132706 12.2204807 29.8032045 13.8470916 30.6931383 12.2204807 32.3197492 11.3305468 30.6931383 10.440613 29.8032045 8.81400209"></polygon>
                <polygon id="Path" fill="#FFFFFF" fill-rule="nonzero" points="24.9703936 13.3315918 24.0282132 13.8470916 24.9703936 14.3625914 25.4858934 15.3047719 26.0013932 14.3625914 26.9435737 13.8470916 26.0013932 13.3315918 25.4858934 12.3894114"></polygon>
            </g>
        </g>
    </g>
</svg>