<?xml version="1.0" encoding="UTF-8"?>
<svg width="69px" height="90px" viewBox="0 0 69 90" version="1.1" xmlns="http://www.w3.org/2000/svg" xmlns:xlink="http://www.w3.org/1999/xlink">
    <title>Group 9</title>
    <defs>
        <linearGradient x1="50%" y1="-14.0229644%" x2="50%" y2="104.490834%" id="linearGradient-1">
            <stop stop-color="#FAFAFA" offset="0%"></stop>
            <stop stop-color="#F2F2F2" offset="100%"></stop>
        </linearGradient>
    </defs>
    <g id="Page-1" stroke="none" stroke-width="1" fill="none" fill-rule="evenodd">
        <g id="ofb_home-v3-copy-7" transform="translate(-745.000000, -562.000000)">
            <g id="Group-9" transform="translate(745.000000, 562.000000)">
                <g id="Group-64">
                    <polyline id="Fill-263" fill="#16325C" points="35.0663392 63.8906359 19.0800778 57.197776 7.9249992 83.8427937 19.8086415 78.7259914 24.0198897 90 35.0663392 63.8906359"></polyline>
                    <polyline id="Fill-264" fill="#16325C" points="48.4117912 56.1330242 32.7860658 63.6331101 45.2896428 89.6731764 49.3613589 77.3924763 60.5838624 81.7357649 48.4117912 56.1330242"></polyline>
                    <path d="M57.8718822,56.0730909 C56.9550906,57.0741637 56.7799731,60.2028673 55.7264587,61.0569163 C54.6710714,61.9109653 51.5742073,61.4343086 50.4045722,62.1216682 C49.2349371,62.8099642 48.1449009,65.7466941 46.8863024,66.2533175 C45.625831,66.7590044 42.8061582,65.3899039 41.48669,65.7017442 C40.1662853,66.0145209 38.2502938,68.4287076 36.9055412,68.6131897 C35.5607886,68.7957989 33.2627226,66.5857598 31.9086054,66.493987 C30.5563612,66.4031506 27.9801673,68.2873026 26.6738095,67.9248936 C25.3683881,67.5634211 23.7895212,64.9151201 22.5243675,64.4281623 C21.2564044,63.9430775 18.2803433,64.9216753 17.0994707,64.2521084 C15.9195346,63.5834779 15.2312385,60.525945 14.1646137,59.6878158 C13.0970525,58.8515595 9.9636666,58.9077469 9.03282811,57.920721 C8.10198962,56.9327586 8.34640496,53.8096738 7.57289128,52.6943532 C6.80031406,51.5790326 3.78960406,50.7118732 3.19120789,49.4944788 C2.59374817,48.276148 3.74746348,45.3628295 3.33729522,44.0677092 C2.9280634,42.7744617 0.305046694,41.0569992 0.0924709019,39.7178653 C-0.119168433,38.3787315 1.84177301,35.9327052 1.83147198,34.5767151 C1.8202345,33.2197886 -0.178165239,30.8074747 0.012872037,29.4645951 C0.20484577,28.1207789 2.80070522,26.3639852 3.19120789,25.0641825 C3.57890118,23.7634434 2.38117238,20.8679177 2.96083941,19.6411587 C3.53863352,18.4143997 6.53716958,17.5004174 7.29195411,16.3729229 C8.04861156,15.2454284 7.7564369,12.1270258 8.67135562,11.1240801 C9.58533788,10.1230074 12.7196602,10.1333084 13.7741111,9.27738648 C14.8294984,8.42333748 15.4690987,5.35644004 16.6387338,4.66908043 C17.8083688,3.98078437 20.8012862,4.91349577 22.0589482,4.40874532 C23.3184832,3.90305842 24.833671,1.16111164 26.1559486,0.849271377 C27.4754169,0.537431119 30.0591024,2.3092082 31.4113466,2.19776979 C32.7635909,2.08539493 35.0213893,-0.0871858561 36.3755064,0.00271403832 C37.7286871,0.0944868472 39.6765182,2.55081417 41.0006687,2.84111591 C42.3248192,3.13422703 45.1229534,1.72204952 46.3909165,2.20807082 C47.6560702,2.69315567 48.7919929,5.61396578 49.9738019,6.2835327 C51.153738,6.95309962 54.242174,6.42962003 55.3106717,7.26587634 C56.3772965,8.10400556 56.6020462,11.2298998 57.5328847,12.2169257 C58.4618503,13.2048881 61.5690154,13.6141199 62.3434655,14.7303769 C63.1160427,15.8438246 62.4108904,18.8976116 63.0064772,20.115006 C63.6058098,21.3324004 66.4535763,22.6406312 66.8628081,23.9338786 C67.2729764,25.2271261 65.6978553,27.9362969 65.9104311,29.2763672 C66.1220704,30.615501 68.4594677,32.7056735 68.4698097,34.0616636 C68.4810062,35.4185901 66.1773214,37.5434116 65.9853477,38.8862913 C65.7924375,40.229171 67.4096991,42.9139938 67.0201329,44.21286 C66.6305667,45.5126627 63.8043388,46.8639705 63.2237353,48.0916659 C62.6450047,49.3184249 63.3969799,52.3591015 62.6412589,53.486596 C61.8874108,54.6140905 58.7858645,55.0710817 57.8718822,56.0730909" id="Fill-265" fill="#02957B"></path>
                    <path d="M58.8467342,34.3116977 C58.8467342,47.903438 47.8283784,58.9217938 34.2347652,58.9217938 C20.6439613,58.9217938 9.62560554,47.903438 9.62560554,34.3116977 C9.62560554,20.7199574 20.6439613,9.70253806 34.2347652,9.70253806 C47.8283784,9.70253806 58.8467342,20.7199574 58.8467342,34.3116977" id="Fill-266" fill="url(#linearGradient-1)"></path>
                    <path d="M34.2347652,8.2959793 C19.8901133,8.2959793 8.21904677,19.9670458 8.21904677,34.3116977 C8.21904677,48.6572861 19.8901133,60.329289 34.2347652,60.329289 C48.58129,60.329289 60.2523565,48.6572861 60.2523565,34.3116977 C60.2523565,19.9670458 48.58129,8.2959793 34.2347652,8.2959793 Z M34.2347652,60.7478854 C19.6588083,60.7478854 7.80045039,48.888591 7.80045039,34.3116977 C7.80045039,19.7348044 19.6588083,7.87551 34.2347652,7.87551 C48.8125949,7.87551 60.6718893,19.7348044 60.6718893,34.3116977 C60.6718893,48.888591 48.8125949,60.7478854 34.2347652,60.7478854 L34.2347652,60.7478854 Z" id="Fill-267" fill="#FFFFFF"></path>
                    <path d="M34.2347652,5.22065374 C18.1941892,5.22065374 5.14465768,18.2711217 5.14465768,34.3116977 C5.14465768,50.3522737 18.1941892,63.4027417 34.2347652,63.4027417 C50.277214,63.4027417 63.327682,50.3522737 63.327682,34.3116977 C63.327682,18.2711217 50.277214,5.22065374 34.2347652,5.22065374 Z M34.2347652,64.2848844 C17.7081679,64.2848844 4.26345142,50.838295 4.26345142,34.3116977 C4.26345142,17.7851004 17.7081679,4.33944749 34.2347652,4.33944749 C50.7632353,4.33944749 64.2088883,17.7851004 64.2088883,34.3116977 C64.2088883,50.838295 50.7632353,64.2848844 34.2347652,64.2848844 L34.2347652,64.2848844 Z" id="Fill-268" fill="#FFFFFF"></path>
                    <polyline id="Fill-269" fill="#E79824" points="26.8985592 22.5432396 27.9061872 23.0760838 27.7095312 21.9551445 28.5289313 21.1591559 27.4005003 20.9980852 26.8985592 19.9754739 26.3966181 20.9980852 25.2672507 21.1591559 26.0866508 21.9551445 25.8909312 23.0760838 26.8985592 22.5432396"></polyline>
                    <polyline id="Fill-270" fill="#E79824" points="42.1862235 22.5441761 43.1938515 23.0760838 42.998132 21.9532716 43.817532 21.1591559 42.6891011 20.9999581 42.1862235 19.9754739 41.6852189 20.9999581 40.556788 21.1591559 41.3752516 21.9532716 41.1785956 23.0760838 42.1862235 22.5441761"></polyline>
                    <path d="M21.3790803,35.8783907 L23.8775482,35.8783907 L23.8775482,28.6892085 C23.8775482,28.4101442 23.8869127,28.1170331 23.9028325,27.8108116 L22.1291825,29.2941598 L21.9025599,29.4224545 L21.6768737,29.4561669 C21.5635623,29.4561669 21.4596156,29.4318191 21.3659699,29.3840597 C21.2723242,29.335364 21.2020899,29.280113 21.1571399,29.2173703 L20.4922553,28.305261 L24.2521311,25.1063231 L25.9845769,25.1063231 L25.9845769,35.8783907 L28.2011712,35.8783907 L28.2011712,37.4553846 L21.3790803,37.4553846 L21.3790803,35.8783907" id="Fill-271" fill="#16325C"></path>
                    <path d="M36.2687503,31.2897502 C36.2687503,30.3973065 36.2041347,29.6584417 36.0730307,29.0722195 C35.9428632,28.4869337 35.7677457,28.020578 35.5486147,27.6740888 C35.3294837,27.3266632 35.0785131,27.0831843 34.7947666,26.9445886 C34.5091471,26.8050565 34.2141631,26.7357587 33.9079416,26.7357587 C33.6054659,26.7357587 33.3142277,26.8050565 33.0332905,26.9445886 C32.7514169,27.0831843 32.5032558,27.3266632 32.2869341,27.6740888 C32.0706125,28.020578 31.8983044,28.4869337 31.7709462,29.0722195 C31.643588,29.6584417 31.5789725,30.3973065 31.5789725,31.2897502 C31.5789725,32.1831304 31.643588,32.9210587 31.7709462,33.5063445 C31.8983044,34.0925667 32.0706125,34.5598589 32.2869341,34.906348 C32.5032558,35.2537737 32.7514169,35.4963161 33.0332905,35.6358482 C33.3142277,35.7744439 33.6054659,35.8446782 33.9079416,35.8446782 C34.2141631,35.8446782 34.5091471,35.7744439 34.7947666,35.6358482 C35.0785131,35.4963161 35.3294837,35.2537737 35.5486147,34.906348 C35.7677457,34.5598589 35.9428632,34.0925667 36.0730307,33.5063445 C36.2041347,32.9210587 36.2687503,32.1831304 36.2687503,31.2897502 Z M38.4441404,31.2897502 C38.4441404,32.3648031 38.3289562,33.298451 38.0985877,34.0916302 C37.8691557,34.8838731 37.5498238,35.5403296 37.1434013,36.057254 C36.7369789,36.5751148 36.2565763,36.9599988 35.7021937,37.2119058 C35.147811,37.4666221 34.5494148,37.5930438 33.9079416,37.5930438 C33.263659,37.5930438 32.6690087,37.4666221 32.1211812,37.2119058 C31.5724173,36.9599988 31.0957605,36.5751148 30.6921475,36.057254 C30.2885344,35.5403296 29.9729483,34.8838731 29.7453892,34.0916302 C29.5178301,33.298451 29.4045188,32.3648031 29.4045188,31.2897502 C29.4045188,30.2090786 29.5178301,29.2744942 29.7453892,28.4841243 C29.9729483,27.6946909 30.2885344,27.0391708 30.6921475,26.5222464 C31.0957605,26.005322 31.5724173,25.6204381 32.1211812,25.3666582 C32.6690087,25.1138148 33.263659,24.987393 33.9079416,24.987393 C34.5494148,24.987393 35.147811,25.1138148 35.7021937,25.3666582 C36.2565763,25.6204381 36.7369789,26.005322 37.1434013,26.5222464 C37.5498238,27.0391708 37.8691557,27.6946909 38.0985877,28.4841243 C38.3289562,29.2744942 38.4441404,30.2090786 38.4441404,31.2897502 L38.4441404,31.2897502 Z" id="Fill-272" fill="#16325C"></path>
                    <path d="M46.162421,31.2897502 C46.162421,30.3973065 46.096869,29.6584417 45.9667014,29.0722195 C45.8355974,28.4869337 45.6614163,28.020578 45.4413489,27.6740888 C45.2231544,27.3266632 44.9712474,27.0831843 44.6884373,26.9445886 C44.4028178,26.8050565 44.1068973,26.7357587 43.8006758,26.7357587 C43.4991366,26.7357587 43.2069619,26.8050565 42.9269612,26.9445886 C42.6450876,27.0831843 42.39599,27.3266632 42.1806048,27.6740888 C41.9633467,28.020578 41.791975,28.4869337 41.6636804,29.0722195 C41.5363222,29.6584417 41.4726431,30.3973065 41.4726431,31.2897502 C41.4726431,32.1831304 41.5363222,32.9210587 41.6636804,33.5063445 C41.791975,34.0925667 41.9633467,34.5598589 42.1806048,34.906348 C42.39599,35.2537737 42.6450876,35.4963161 42.9269612,35.6358482 C43.2069619,35.7744439 43.4991366,35.8446782 43.8006758,35.8446782 C44.1068973,35.8446782 44.4028178,35.7744439 44.6884373,35.6358482 C44.9712474,35.4963161 45.2231544,35.2537737 45.4413489,34.906348 C45.6614163,34.5598589 45.8355974,34.0925667 45.9667014,33.5063445 C46.096869,32.9210587 46.162421,32.1831304 46.162421,31.2897502 Z M48.3378111,31.2897502 C48.3378111,32.3648031 48.2226269,33.298451 47.9922584,34.0916302 C47.7628264,34.8838731 47.4434945,35.5403296 47.0361356,36.057254 C46.6306496,36.5751148 46.1493106,36.9599988 45.5949279,37.2119058 C45.0405452,37.4666221 44.4430855,37.5930438 43.8006758,37.5930438 C43.1573297,37.5930438 42.5626794,37.4666221 42.0139154,37.2119058 C41.4651515,36.9599988 40.9884947,36.5751148 40.5858181,36.057254 C40.1812686,35.5403296 39.8656825,34.8838731 39.6381234,34.0916302 C39.4115008,33.298451 39.2981894,32.3648031 39.2981894,31.2897502 C39.2981894,30.2090786 39.4115008,29.2744942 39.6381234,28.4841243 C39.8656825,27.6946909 40.1812686,27.0391708 40.5858181,26.5222464 C40.9884947,26.005322 41.4651515,25.6204381 42.0139154,25.3666582 C42.5626794,25.1138148 43.1573297,24.987393 43.8006758,24.987393 C44.4430855,24.987393 45.0405452,25.1138148 45.5949279,25.3666582 C46.1493106,25.6204381 46.6306496,26.005322 47.0361356,26.5222464 C47.4434945,27.0391708 47.7628264,27.6946909 47.9922584,28.4841243 C48.2226269,29.2744942 48.3378111,30.2090786 48.3378111,31.2897502 L48.3378111,31.2897502 Z" id="Fill-273" fill="#16325C"></path>
                    <path d="M39.3796612,16.7240944 C39.166149,16.7240944 38.9929044,16.8964025 38.9929044,17.1108512 C38.9929044,17.2213532 39.0397272,17.3224906 39.1165167,17.3936613 L36.4869448,20.2414278 L36.9692203,16.403826 L37.0113609,16.4075719 C37.2258096,16.4075719 37.3971813,16.2333908 37.3971813,16.020815 C37.3971813,15.8063663 37.2258096,15.6340582 37.0113609,15.6340582 C36.7978486,15.6340582 36.624604,15.8063663 36.624604,16.020815 C36.624604,16.1837586 36.7266779,16.3232907 36.8708923,16.3804146 L35.4156377,20.0803571 L34.4763711,15.0824849 C34.6561709,15.0487724 34.7919572,14.8914476 34.7919572,14.7022832 C34.7919572,14.488771 34.6187126,14.3145899 34.4052004,14.3145899 C34.1907517,14.3145899 34.0175071,14.488771 34.0175071,14.7022832 C34.0175071,14.8914476 34.1542299,15.0487724 34.3340296,15.0824849 L33.3956995,20.0803571 L31.9395085,16.3804146 C32.0837229,16.3232907 32.1857967,16.1837586 32.1857967,16.020815 C32.1857967,15.8063663 32.0125522,15.6340582 31.7990399,15.6340582 C31.5845912,15.6340582 31.4132195,15.8063663 31.4132195,16.020815 C31.4132195,16.2333908 31.5845912,16.4075719 31.7990399,16.4075719 L31.8411805,16.403826 L32.323456,20.2423642 L29.6882653,17.3880426 C29.761309,17.3178083 29.8071954,17.2194803 29.8071954,17.1108512 C29.8071954,16.8964025 29.6339508,16.7240944 29.4204385,16.7240944 C29.2078627,16.7240944 29.0346182,16.8964025 29.0346182,17.1108512 C29.0346182,17.323427 29.2078627,17.4957352 29.4204385,17.4957352 L29.6311414,17.433929 L32.0256626,21.2125339 L36.7838018,21.2125339 L39.17645,17.4386113 L39.3796612,17.4957352 C39.592237,17.4957352 39.7664181,17.323427 39.7664181,17.1108512 C39.7664181,16.8964025 39.592237,16.7240944 39.3796612,16.7240944" id="Fill-281" fill="#16325C"></path>
                    <polygon id="Fill-282" fill="#16325C" points="31.8168326 21.7734718 36.9842036 21.7734718 36.9842036 21.4363472 31.8168326 21.4363472"></polygon>
                    <polygon id="Fill-283" fill="#16325C" points="31.9441908 22.427119 36.8568454 22.427119 36.8568454 21.943907 31.9441908 21.943907"></polygon>
                    <path d="M35.475571,52.4855232 C35.475571,53.1269964 34.9558372,53.6457937 34.314364,53.6457937 C33.6757002,53.6457937 33.1540935,53.1269964 33.1540935,52.4855232 C33.1540935,51.84405 33.6757002,51.3252527 34.314364,51.3252527 C34.9558372,51.3252527 35.475571,51.84405 35.475571,52.4855232" id="Fill-284" fill="#E79824"></path>
                    <polyline id="Fill-285" fill="#E79824" points="24.0180168 52.4293358 32.1389739 53.1560266 32.1389739 51.9302041 24.0180168 52.4293358"></polyline>
                    <polyline id="Fill-286" fill="#E79824" points="44.6135207 52.4293358 36.4906907 53.1560266 36.4906907 51.9302041 44.6135207 52.4293358"></polyline>
                    <path d="M53.4855165,29.4777055 C53.4855165,29.7043281 53.5463862,29.8944289 53.6681257,30.0498808 C53.7908016,30.2053327 53.9668555,30.2821222 54.1953511,30.2821222 C54.4154186,30.2821222 54.5858538,30.2053327 54.7066568,30.0498808 C54.8265233,29.8944289 54.8864565,29.7043281 54.8864565,29.4777055 L54.8864565,29.1255975 C54.8864565,28.9017843 54.8255868,28.7126199 54.7019745,28.5552951 C54.5774257,28.3989067 54.406054,28.3202443 54.1859865,28.3202443 C53.9631097,28.3202443 53.7908016,28.3989067 53.6681257,28.5552951 C53.5463862,28.7126199 53.4855165,28.9017843 53.4855165,29.1255975 L53.4855165,29.4777055 Z M52.8253142,29.1255975 C52.8253142,28.7425865 52.949863,28.4204452 53.1961512,28.1610466 C53.4433759,27.8988386 53.7739454,27.7696075 54.1859865,27.7696075 C54.5961548,27.7696075 54.9248513,27.8988386 55.1739489,28.1610466 C55.4221101,28.4204452 55.5466589,28.7425865 55.5466589,29.1255975 L55.5466589,29.4777055 C55.5466589,29.8635258 55.4230465,30.1866036 55.1767583,30.4450658 C54.9285971,30.7044644 54.6017735,30.834632 54.1953511,30.834632 C53.7795641,30.834632 53.4471218,30.7044644 53.1980242,30.4450658 C52.949863,30.1866036 52.8253142,29.8635258 52.8253142,29.4777055 L52.8253142,29.1255975 Z M51.2398921,30.2418546 L50.7463791,29.9384424 L53.9612368,24.7954193 L54.4528768,25.097895 L51.2398921,30.2418546 Z M50.299689,25.7721442 C50.299689,25.995021 50.3596223,26.1832489 50.4822982,26.3387008 C50.6049741,26.4941527 50.7791551,26.5709422 51.0095236,26.5709422 C51.2286546,26.5709422 51.3981533,26.4941527 51.5189563,26.3405737 C51.6397593,26.1869947 51.700629,25.9968939 51.700629,25.7721442 L51.700629,25.4237821 C51.700629,25.1999688 51.6388229,25.0089315 51.5180199,24.8516067 C51.395344,24.692409 51.2230358,24.6137466 51.000159,24.6137466 C50.7735364,24.6137466 50.6002918,24.692409 50.4804253,24.8516067 C50.3596223,25.0089315 50.299689,25.1999688 50.299689,25.4237821 L50.299689,25.7721442 Z M49.6394867,25.4237821 C49.6394867,25.0407711 49.7621626,24.7186298 50.0103237,24.4564218 C50.2575484,24.1932773 50.5862449,24.0631097 51.000159,24.0631097 C51.4122002,24.0631097 51.7427696,24.1932773 51.9890579,24.4526759 C52.2362826,24.714884 52.3608314,25.0379617 52.3608314,25.4237821 L52.3608314,25.7721442 C52.3608314,26.1542187 52.2381555,26.4754236 51.9909308,26.7338858 C51.7465154,26.9932844 51.4187554,27.123452 51.0095236,27.123452 C50.5928001,27.123452 50.2612943,26.9932844 50.0121966,26.7338858 C49.763099,26.4754236 49.6394867,26.1542187 49.6394867,25.7721442 L49.6394867,25.4237821 L49.6394867,25.4237821 Z" id="Fill-287" fill="#16325C"></path>
                </g>
                <text id="Quality" font-family="Inter-SemiBold, Inter" font-size="8" font-weight="500" letter-spacing="-0.134265818" fill="#16325C">
                    <tspan x="19.125" y="45.75">Quality</tspan>
                </text>
            </g>
        </g>
    </g>
</svg>