<?xml version="1.0" encoding="UTF-8"?>
<svg width="142px" height="90px" viewBox="0 0 142 90" version="1.1" xmlns="http://www.w3.org/2000/svg" xmlns:xlink="http://www.w3.org/1999/xlink">
    <title>Group 72</title>
    <g id="Page-1" stroke="none" stroke-width="1" fill="none" fill-rule="evenodd">
        <g id="ofb_home-v3-copy-7" transform="translate(-354.000000, -562.000000)">
            <g id="Group-72" transform="translate(354.000000, 562.000000)">
                <path d="M70.9625573,90 C31.7710026,90 0,87.026369 0,83.3588255 C0,79.6908899 31.7710026,76.7176509 70.9625573,76.7176509 C110.15372,76.7176509 141.924722,79.6908899 141.924722,83.3588255 C141.924722,87.026369 110.15372,90 70.9625573,90" id="Fill-4" fill="#00A1D7"></path>
                <path d="M101.120703,31.2836274 C94.8703935,20.5464085 78.1655266,25.350479 78.1039761,25.3681208 C73.2959853,31.5266929 67.0049034,41.0674026 64.0885104,51.8163828 C59.0303974,70.4595005 65.2446393,79.8535869 65.2446393,79.8535869 C65.2446393,79.8535869 68.713026,87.0792946 88.94587,85.055971 C95.8473597,84.3659788 102.123936,84.6106124 107.423154,84.4969205 C116.393836,66.2301622 107.382774,42.0408404 101.120703,31.2836274" id="Fill-9" fill="#03B293"></path>
                <path d="M124.643163,70.3148373 C125.076368,53.9839774 110.028267,25.3246042 99.3518142,18.1428052 L84.3672231,18.1428052 C84.3672231,18.1428052 81.6346974,20.8451438 78.1039761,25.3681208 C78.1655266,25.350479 94.8703935,20.5464085 101.120703,31.2836274 C107.382774,42.0408404 116.393836,66.2301622 107.423154,84.4969205 C117.71031,84.2762014 124.314241,82.704117 124.643163,70.3148373" id="Fill-10" fill="#02957B"></path>
                <path d="M84.3672231,18.1428052 C84.3672231,18.1428052 71.8179907,-0.250582406 80.6471461,0.0540334504 C89.4770855,0.358649307 87.8422745,3.55535162 93.3786775,2.94651195 C98.9154726,2.33728023 99.98104,-1.62037366 106.374837,0.815377072 C112.768633,3.25073576 98.0020171,19.8442631 98.0020171,19.8442631 L84.3672231,18.1428052" id="Fill-11" fill="#16325C"></path>
                <path d="M97.5225509,43.0185907 C98.7006341,43.0185907 99.6646629,42.0545619 99.6646629,40.8764787 C99.6646629,39.6983955 98.7006341,38.7343666 97.5225509,38.7343666 L80.5573687,38.7343666 C79.3788934,38.7343666 78.4152567,39.6983955 78.4152567,40.8764787 C78.4152567,42.0545619 79.3788934,43.0185907 80.5573687,43.0185907 L85.4198532,43.0185907 C87.4976705,43.0185907 89.2755764,44.2394064 90.0894536,46.0173123 L80.5789309,46.0173123 C79.4004557,46.0173123 78.4364269,46.9813411 78.4364269,48.1598164 C78.4364269,49.3378996 79.4004557,50.3019284 80.5789309,50.3019284 L90.0894536,50.3019284 C89.2755764,52.0582721 87.4976705,53.30065 85.4198532,53.30065 L80.5573687,53.30065 C79.6791969,53.30065 78.8860979,53.836178 78.5650163,54.6500551 C78.2439348,55.4643243 78.4364269,56.4067908 79.0789821,57.0066136 L91.203242,68.4667561 C91.6101806,68.8525244 92.1457086,69.0450165 92.6816286,69.0450165 C93.2598891,69.0450165 93.8165873,68.8097919 94.2450882,68.3812911 C95.0593573,67.5242895 95.0166248,66.1748844 94.1596232,65.3610073 L85.933819,57.584874 C90.1537483,57.3492574 93.6456575,54.3289735 94.588124,50.3230986 L97.5225509,50.3230986 C98.7006341,50.3230986 99.6646629,49.3590698 99.6646629,48.1809866 C99.6646629,47.0029034 98.7006341,46.0388745 97.5225509,46.0388745 L94.588124,46.0388745 C94.3309451,44.9678185 93.9024443,43.939495 93.3030136,43.0397609 L97.5225509,43.0397609 L97.5225509,43.0185907" id="Fill-12" fill="#D5EBED"></path>
                <path d="M91.9610573,84.8117294 C91.9610573,84.8117294 79.1174021,84.8117294 75.7807412,77.7938035 C75.7807412,77.7938035 75.1554358,83.316093 80.2374632,85.3754844 C80.2374632,85.3754844 89.2645993,85.6389359 91.9610573,84.8117294" id="Fill-13" fill="#03B293"></path>
                <path d="M96.6141919,13.9444381 C96.6141919,13.9444381 100.821184,7.61219188 101.95379,0.0305109904 C101.95379,0.0305109904 110.631226,-0.775525305 107.423154,5.89818863 C107.423154,5.89818863 106.037681,10.2894399 100.695731,16.6048283 L96.6141919,13.9444381" id="Fill-14" fill="#16325C"></path>
                <path d="M84.490324,18.8343655 C84.0206589,18.8425984 83.5572664,18.6175668 83.2816616,18.1969068 C82.8547289,17.5457267 83.0323235,16.6734355 83.6823275,16.2441506 C83.9759662,16.0493062 91.0013409,11.5188804 100.769827,15.004517 C101.504903,15.2667924 101.888319,16.0751809 101.626044,16.8106499 C101.364161,17.5457267 100.55734,17.9291428 99.8199112,17.6668674 C91.4306258,14.6752025 85.4853241,18.4438927 85.236378,18.6054136 C85.0058579,18.7551732 84.7467188,18.829661 84.490324,18.8343655" id="Fill-15" fill="#16325C"></path>
                <path d="M102.672794,21.1258451 C102.517937,21.1258451 102.360729,21.1003625 102.206657,21.0462608 C89.8914729,16.7404745 82.0020398,20.9102226 81.9244157,20.9533471 C81.2403041,21.3265701 80.3809502,21.0740957 80.0073352,20.388024 C79.6333281,19.7023443 79.8869786,18.8441665 80.5726583,18.4705514 C80.9376485,18.2717867 89.6546801,13.6641288 103.139322,18.3776377 C103.876359,18.6352087 104.265264,19.441245 104.007301,20.1786741 C103.803832,20.761247 103.256935,21.1258451 102.672794,21.1258451" id="Fill-16" fill="#16325C"></path>
                <path d="M94.2160771,31.4024159 C94.0322099,31.4024159 93.8452063,31.3663481 93.6652595,31.2902921 C92.9466484,30.9860683 92.6106692,30.1565096 92.914893,29.4375064 C96.5267668,20.9039499 93.4296429,19.2146453 93.3978876,19.1989636 L93.2496961,19.1080101 L94.5195169,16.6048283 C94.6782935,16.6702992 96.0966978,17.3010931 96.9148874,19.2914853 C98.0149544,21.966381 97.5452893,25.7511449 95.5184373,30.5395336 C95.2902695,31.07859 94.7665027,31.4024159 94.2160771,31.4024159" id="Fill-17" fill="#16325C"></path>
                <path d="M106.19881,35.429069 C105.425313,35.5337439 104.714543,34.9919433 104.609084,34.2192304 C104.605948,34.1933557 104.238605,31.6066692 102.914683,28.6459756 C101.197543,24.8051499 98.757088,22.1635777 95.6603562,20.7953546 C94.9464495,20.4797616 94.6234077,19.6454983 94.9386087,18.9311996 C95.2545937,18.2169009 96.0880729,17.8946432 96.8031557,18.2094521 C105.737378,22.1576971 107.346314,33.3645811 107.410609,33.8393427 C107.514892,34.6132317 106.972699,35.3247861 106.19881,35.429069" id="Fill-18" fill="#16325C"></path>
                <path d="M14.3388996,76.6866797 C14.3388996,76.6866797 36.4198248,75.4294042 58.50075,76.6866797 L14.3388996,76.6866797" id="Fill-19" fill="#E5CE81"></path>
                <polygon id="Fill-20" fill="#E79824" points="14.3388996 82.5751355 58.50075 82.5751355 58.50075 76.6866797 14.3388996 76.6866797"></polygon>
                <g id="Group-35" transform="translate(15.959989, 76.686680)">
                    <polygon id="Fill-21" fill="#FFD837" points="0 5.88845581 0.732724628 5.88845581 0.732724628 0 0 0"></polygon>
                    <polygon id="Fill-23" fill="#FFD837" points="3.37547301 5.88845581 4.10819764 5.88845581 4.10819764 0 3.37547301 0"></polygon>
                    <polygon id="Fill-24" fill="#FFD837" points="6.75055397 5.88845581 7.48367064 5.88845581 7.48367064 0 6.75055397 0"></polygon>
                    <polygon id="Fill-25" fill="#FFD837" points="10.126027 5.88845581 10.8591436 5.88845581 10.8591436 0 10.126027 0"></polygon>
                    <polygon id="Fill-26" fill="#FFD837" points="13.5015 5.88845581 14.2346167 5.88845581 14.2346167 0 13.5015 0"></polygon>
                    <polygon id="Fill-27" fill="#FFD837" points="16.877365 5.88845581 17.6100897 5.88845581 17.6100897 0 16.877365 0"></polygon>
                    <polygon id="Fill-28" fill="#FFD837" points="20.252446 5.88845581 20.9855627 5.88845581 20.9855627 0 20.252446 0"></polygon>
                    <polygon id="Fill-29" fill="#FFD837" points="23.627919 5.88845581 24.3610357 5.88845581 24.3610357 0 23.627919 0"></polygon>
                    <polygon id="Fill-30" fill="#DEC353" points="33.754338 5.88845581 34.4874547 5.88845581 34.4874547 0 33.754338 0"></polygon>
                    <polygon id="Fill-31" fill="#DEC353" points="27.003392 5.88845581 27.7365087 5.88845581 27.7365087 0 27.003392 0"></polygon>
                    <polygon id="Fill-32" fill="#DEC353" points="37.129811 5.88845581 37.8629277 5.88845581 37.8629277 0 37.129811 0"></polygon>
                    <polygon id="Fill-33" fill="#DEC353" points="30.378865 5.88845581 31.1115897 5.88845581 31.1115897 0 30.378865 0"></polygon>
                    <polygon id="Fill-34" fill="#FFD837" points="40.505284 5.88845581 41.2384007 5.88845581 41.2384007 0 40.505284 0"></polygon>
                </g>
                <path d="M12.4422052,69.8604618 C12.4422052,69.8604618 34.5231304,68.6027943 56.6036636,69.8604618 L12.4422052,69.8604618" id="Fill-36" fill="#FFD837"></path>
                <polygon id="Fill-37" fill="#E79824" points="12.4422052 75.7485256 56.6036636 75.7485256 56.6036636 69.8604618 12.4422052 69.8604618"></polygon>
                <g id="Group-52" transform="translate(14.062903, 69.860462)">
                    <polygon id="Fill-38" fill="#FFD837" points="0 5.88806377 0.732724628 5.88806377 0.732724628 0 0 0"></polygon>
                    <polygon id="Fill-40" fill="#FFD837" points="3.37547301 5.88806377 4.10819764 5.88806377 4.10819764 0 3.37547301 0"></polygon>
                    <polygon id="Fill-41" fill="#FFD837" points="6.75094601 5.88806377 7.48367064 5.88806377 7.48367064 0 6.75094601 0"></polygon>
                    <polygon id="Fill-42" fill="#FFD837" points="10.126419 5.88806377 10.8591436 5.88806377 10.8591436 0 10.126419 0"></polygon>
                    <polygon id="Fill-43" fill="#FFD837" points="13.501892 5.88806377 14.2346167 5.88806377 14.2346167 0 13.501892 0"></polygon>
                    <polygon id="Fill-44" fill="#FFD837" points="16.877365 5.88806377 17.6100897 5.88806377 17.6100897 0 16.877365 0"></polygon>
                    <polygon id="Fill-45" fill="#DEC353" points="20.252838 5.88806377 20.9855627 5.88806377 20.9855627 0 20.252838 0"></polygon>
                    <polygon id="Fill-46" fill="#DEC353" points="23.627919 5.88806377 24.3610357 5.88806377 24.3610357 0 23.627919 0"></polygon>
                    <polygon id="Fill-47" fill="#DEC353" points="33.754338 5.88806377 34.4874547 5.88806377 34.4874547 0 33.754338 0"></polygon>
                    <polygon id="Fill-48" fill="#DEC353" points="27.0037841 5.88806377 27.7365087 5.88806377 27.7365087 0 27.0037841 0"></polygon>
                    <polygon id="Fill-49" fill="#DEC353" points="37.129811 5.88806377 37.8629277 5.88806377 37.8629277 0 37.129811 0"></polygon>
                    <polygon id="Fill-50" fill="#DEC353" points="30.3792571 5.88806377 31.1119817 5.88806377 31.1119817 0 30.3792571 0"></polygon>
                    <polygon id="Fill-51" fill="#DEC353" points="40.505284 5.88806377 41.2384007 5.88806377 41.2384007 0 40.505284 0"></polygon>
                </g>
                <path d="M71.3020648,64.7384461 C71.3020648,75.8688822 62.2788491,84.8920978 51.1484131,84.8920978 C40.017585,84.8920978 30.9943694,75.8688822 30.9943694,64.7384461 C30.9943694,53.6076181 40.017585,44.5844024 51.1484131,44.5844024 C62.2788491,44.5844024 71.3020648,53.6076181 71.3020648,64.7384461" id="Fill-53" fill="#936015"></path>
                <path d="M70.4293815,64.7384461 C70.4293815,75.8688822 61.4061659,84.8920978 50.2757298,84.8920978 C39.1449018,84.8920978 30.1212941,75.8688822 30.1212941,64.7384461 C30.1212941,53.6076181 39.1449018,44.5844024 50.2757298,44.5844024 C61.4061659,44.5844024 70.4293815,53.6076181 70.4293815,64.7384461" id="Fill-54" fill="#DEC353"></path>
                <path d="M70.4293815,64.7384461 C70.4293815,75.8688822 61.4061659,84.8920978 50.2757298,84.8920978 C39.1449018,84.8920978 30.1212941,75.8688822 30.1212941,64.7384461 C30.1212941,53.6076181 39.1449018,44.5844024 50.2757298,44.5844024 C61.4061659,44.5844024 70.4293815,53.6076181 70.4293815,64.7384461" id="Fill-55" fill="#FFD837"></path>
                <path d="M66.5262213,64.7384461 C66.5262213,73.7130487 59.2503324,80.9889376 50.2757298,80.9889376 C41.3007352,80.9889376 34.0248463,73.7130487 34.0248463,64.7384461 C34.0248463,55.7630595 41.3007352,48.4875626 50.2757298,48.4875626 C59.2503324,48.4875626 66.5262213,55.7630595 66.5262213,64.7384461" id="Fill-56" fill="#E79824"></path>
                <path d="M50.2757298,48.4875626 C50.1561573,48.4875626 50.0377609,48.4899149 49.9193646,48.4918751 C58.729702,48.6816229 65.8134908,55.88224 65.8134908,64.7384461 C65.8134908,73.5942603 58.729702,80.7948773 49.9193646,80.9842331 C50.0377609,80.9869774 50.1561573,80.9889376 50.2757298,80.9889376 C59.2503324,80.9889376 66.5262213,73.7130487 66.5262213,64.7384461 C66.5262213,55.7630595 59.2503324,48.4875626 50.2757298,48.4875626" id="Fill-57" fill="#FFEBA6"></path>
                <path d="M35.1155044,64.7384461 C35.1155044,55.9457506 42.0985387,48.7855138 50.8210589,48.4977557 C50.6399359,48.491483 50.4580289,48.4875626 50.2757298,48.4875626 C41.3007352,48.4875626 34.0248463,55.7630595 34.0248463,64.7384461 C34.0248463,73.7130487 41.3007352,80.9889376 50.2757298,80.9889376 C50.4580289,80.9889376 50.6399359,80.9850172 50.8210589,80.9791366 C42.0985387,80.6909865 35.1155044,73.5307496 35.1155044,64.7384461" id="Fill-58" fill="#936015"></path>
                <path d="M52.80165,58.1004079 C53.3783423,58.9076204 53.8103715,59.8010818 54.0699026,60.7807923 L57.0388291,60.7807923 L55.8858365,64.23977 L54.2427927,64.23977 C53.7527415,67.8143998 51.2738662,70.6096522 47.7576505,71.0997034 L53.1031295,78.6425722 L48.8945694,78.6425722 L43.5781014,71.1863445 L43.5781014,67.7277588 L46.4603868,67.7277588 C48.5644709,67.7277588 50.3517858,66.257605 50.784207,64.268781 L42.7999,64.268781 L43.9528926,60.8098033 L50.5246759,60.8098033 C49.8617345,59.2243895 48.2763207,58.1290269 46.4603868,58.1290269 L42.7999,58.1290269 L43.9528926,54.6704412 L57.0388291,54.6704412 L55.8858365,58.1290269 L52.80165,58.1290269 L52.80165,58.1004079" id="Fill-59" fill="#936015"></path>
                <path d="M53.5696583,57.383757 C54.1459586,58.1909694 54.5783798,59.0844308 54.8375189,60.0645333 L57.8064454,60.0645333 L56.6534528,63.523119 L55.010409,63.523119 C54.5207498,67.0973568 52.0418745,69.8933933 48.5252668,70.3830525 L53.8707458,77.9259213 L49.6625777,77.9259213 L44.3457177,70.4696935 L44.3457177,67.0111078 L47.2280031,67.0111078 C49.3320871,67.0111078 51.1194021,65.5409541 51.5518233,63.551738 L43.5675163,63.551738 L44.7205089,60.0931523 L51.2922921,60.0931523 C50.6293508,58.5077385 49.043937,57.412376 47.2280031,57.412376 L43.5675163,57.412376 L44.7205089,53.9537903 L57.8064454,53.9537903 L56.6534528,57.412376 L53.5696583,57.412376 L53.5696583,57.383757" id="Fill-60" fill="#FFD837"></path>
            </g>
        </g>
    </g>
</svg>