<?xml version="1.0" encoding="UTF-8"?>
<svg width="38px" height="40px" viewBox="0 0 38 40" version="1.1" xmlns="http://www.w3.org/2000/svg" xmlns:xlink="http://www.w3.org/1999/xlink">
    <title>027-investment</title>
    <g id="Page-1" stroke="none" stroke-width="1" fill="none" fill-rule="evenodd">
        <g id="ofb_home-v3-" transform="translate(-1267.000000, -4093.000000)">
            <g id="Group-53" transform="translate(240.000000, 3722.000000)">
                <g id="Group-19" transform="translate(216.000000, 352.000000)">
                    <g id="Group-52-Copy-2" transform="translate(672.000000, 1.000000)">
                        <g id="027-investment" transform="translate(139.000000, 18.000000)">
                            <polygon id="Rectangle-path" fill="#1E5ACB" points="21.4435292 24.2857143 22.8730979 24.2857143 22.8730979 25.7142857 21.4435292 25.7142857"></polygon>
                            <polygon id="Rectangle-path" fill="#1E5ACB" points="21.4435292 30 22.8730979 30 22.8730979 31.4285714 21.4435292 31.4285714"></polygon>
                            <polygon id="Rectangle-path" fill="#1E5ACB" points="21.4435292 35.7142857 22.8730979 35.7142857 22.8730979 37.1428571 21.4435292 37.1428571"></polygon>
                            <polygon id="Rectangle-path" fill="#1E5ACB" points="27.1618037 30 28.5913723 30 28.5913723 31.4285714 27.1618037 31.4285714"></polygon>
                            <polygon id="Rectangle-path" fill="#1E5ACB" points="27.1618037 35.7142857 28.5913723 35.7142857 28.5913723 37.1428571 27.1618037 37.1428571"></polygon>
                            <polygon id="Shape" fill="#447EED" points="7.14784308 27.1428571 1.01070501 27.1428571 7.14784308 33.2757143"></polygon>
                            <path d="M8.5774117,27.1428571 L8.5774117,34.2857143 L17.1548234,34.2857143 L17.1548234,12.8571429 C17.1548234,11.2791864 18.4349027,10 20.0139606,10 L24.3026665,10 L24.3026665,0 L0,0 L0,25.7142857 L7.14784308,25.7142857 C7.93737203,25.7142857 8.5774117,26.3538789 8.5774117,27.1428571 Z M15.0104705,27.1428571 L10.7217646,27.1428571 C10.3270002,27.1428571 10.0069803,26.8230605 10.0069803,26.4285714 C10.0069803,26.0340824 10.3270002,25.7142857 10.7217646,25.7142857 L15.0104705,25.7142857 C15.4052349,25.7142857 15.7252548,26.0340824 15.7252548,26.4285714 C15.7252548,26.8230605 15.4052349,27.1428571 15.0104705,27.1428571 Z M10.7217646,1.42857143 L22.1583136,1.42857143 C22.553078,1.42857143 22.8730979,1.74836804 22.8730979,2.14285714 C22.8730979,2.53734625 22.553078,2.85714286 22.1583136,2.85714286 L10.7217646,2.85714286 C10.3270002,2.85714286 10.0069803,2.53734625 10.0069803,2.14285714 C10.0069803,1.74836804 10.3270002,1.42857143 10.7217646,1.42857143 Z M10.7217646,4.28571429 L22.1583136,4.28571429 C22.553078,4.28571429 22.8730979,4.60551089 22.8730979,5 C22.8730979,5.39448911 22.553078,5.71428571 22.1583136,5.71428571 L10.7217646,5.71428571 C10.3270002,5.71428571 10.0069803,5.39448911 10.0069803,5 C10.0069803,4.60551089 10.3270002,4.28571429 10.7217646,4.28571429 Z M10.7217646,7.14285714 L22.1583136,7.14285714 C22.553078,7.14285714 22.8730979,7.46265379 22.8730979,7.85714286 C22.8730979,8.25163193 22.553078,8.57142857 22.1583136,8.57142857 L10.7217646,8.57142857 C10.3270002,8.57142857 10.0069803,8.25163193 10.0069803,7.85714286 C10.0069803,7.46265379 10.3270002,7.14285714 10.7217646,7.14285714 Z M2.14435292,14.2857143 L15.0104705,14.2857143 C15.4052349,14.2857143 15.7252548,14.6055109 15.7252548,15 C15.7252548,15.3944891 15.4052349,15.7142857 15.0104705,15.7142857 L2.14435292,15.7142857 C1.74958845,15.7142857 1.42956862,15.3944891 1.42956862,15 C1.42956862,14.6055109 1.74958845,14.2857143 2.14435292,14.2857143 Z M2.14435292,17.1428571 L15.0104705,17.1428571 C15.4052349,17.1428571 15.7252548,17.4626538 15.7252548,17.8571429 C15.7252548,18.2516319 15.4052349,18.5714286 15.0104705,18.5714286 L2.14435292,18.5714286 C1.74958845,18.5714286 1.42956862,18.2516319 1.42956862,17.8571429 C1.42956862,17.4626538 1.74958845,17.1428571 2.14435292,17.1428571 Z M2.14435292,20 L15.0104705,20 C15.4052349,20 15.7252548,20.3197966 15.7252548,20.7142857 C15.7252548,21.1087748 15.4052349,21.4285714 15.0104705,21.4285714 L2.14435292,21.4285714 C1.74958845,21.4285714 1.42956862,21.1087748 1.42956862,20.7142857 C1.42956862,20.3197966 1.74958845,20 2.14435292,20 Z M1.42956862,23.5714286 C1.42956862,23.1769395 1.74958845,22.8571429 2.14435292,22.8571429 L15.0104705,22.8571429 C15.4052349,22.8571429 15.7252548,23.1769395 15.7252548,23.5714286 C15.7252548,23.9659176 15.4052349,24.2857143 15.0104705,24.2857143 L2.14435292,24.2857143 C1.74958845,24.2857143 1.42956862,23.9659176 1.42956862,23.5714286 Z" id="Shape" fill="#00D7A5"></path>
                            <g id="Group-4" transform="translate(0.972308, 1.600000)" fill="#FFFFFF">
                                <polygon id="Path" points="4.83971313 7.39973128 3.14161647 5.73933559 2.78862586 6.21263482 3.14161647 7.20365362 4.09094943 8.13185578"></polygon>
                                <path d="M4.94119793,3.10631741 L6.05378905,3.10631741 L6.05378905,2.07087827 L4.94155092,2.07087827 C4.86184564,1.68852512 4.69562236,1.33657935 4.46388402,1.03543914 L6.05378905,1.03543914 L6.05378905,-1.42108547e-14 L3.14161647,-1.42108547e-14 L2.78862586,0.622160863 L3.14161647,1.24432173 C3.46576775,1.42821572 3.71776775,1.7207963 3.84477378,2.07087827 L3.14161647,2.07087827 L2.78862586,2.58859784 L3.14161647,3.10631741 L3.84477378,3.10631741 C3.71776775,3.45639938 3.46576775,3.74897997 3.14161647,3.93287396 L2.78862586,4.53867488 L3.14161647,5.05763698 C4.04993192,4.77758521 4.74839445,4.03099908 4.94119793,3.10631741 L4.94119793,3.10631741 Z" id="Path"></path>
                                <polygon id="Path" points="0.2294439 2.07087827 3.14161647 2.07087827 3.14161647 3.10631741 0.2294439 3.10631741"></polygon>
                                <path d="M0.2294439,-1.56319402e-13 L0.2294439,1.03543914 L2.34738759,1.03543914 C2.6366281,1.03543914 2.90783079,1.11168197 3.14161647,1.24432173 L3.14161647,-1.56319402e-13 L0.2294439,-1.56319402e-13 Z" id="Path"></path>
                                <path d="M2.55840538,5.16905023 C2.76003362,5.1534151 2.95516683,5.11513837 3.14161647,5.05763698 L3.14161647,3.93287396 C2.90783079,4.06551371 2.6366281,4.14175655 2.34738759,4.14175655 L0.0101308306,4.14175655 L3.14161647,7.20365362 L3.14161647,5.73933559 L2.55840538,5.16905023 Z" id="Path"></path>
                            </g>
                            <polygon id="Rectangle-path" fill="#1E5ACB" points="27.1618037 24.2857143 28.5913723 24.2857143 28.5913723 25.7142857 27.1618037 25.7142857"></polygon>
                            <polygon id="Shape" fill="#1E5ACB" points="30.3168617 14.2857143 24.5985872 20 34.3096468 20 34.3096468 14.2857143"></polygon>
                            <polygon id="Rectangle-path" fill="#1E5ACB" points="32.8800782 30 34.3096468 30 34.3096468 31.4285714 32.8800782 31.4285714"></polygon>
                            <polygon id="Shape" fill="#1E5ACB" points="26.0281558 14.2857143 21.4435292 18.8671429 21.4435292 20 22.5771772 20 28.2954516 14.2857143"></polygon>
                            <polygon id="Shape" fill="#1E5ACB" points="21.4435292 14.2857143 21.4435292 16.8471429 24.0067458 14.2857143"></polygon>
                            <polygon id="Rectangle-path" fill="#1E5ACB" points="32.8800782 24.2857143 34.3096468 24.2857143 34.3096468 25.7142857 32.8800782 25.7142857"></polygon>
                            <path d="M35.7392154,11.4285714 L20.0139606,11.4285714 C19.2244317,11.4285714 18.584392,12.0681646 18.584392,12.8571429 L18.584392,38.5714286 C18.584392,39.3604068 19.2244317,40 20.0139606,40 L35.7392154,40 C36.5287444,40 37.168784,39.3604068 37.168784,38.5714286 L37.168784,12.8571429 C37.168784,12.0681646 36.5287444,11.4285714 35.7392154,11.4285714 Z M24.3026665,37.1428571 C24.3026665,37.9318354 23.6626268,38.5714286 22.8730979,38.5714286 L21.4435292,38.5714286 C20.6540003,38.5714286 20.0139606,37.9318354 20.0139606,37.1428571 L20.0139606,35.7142857 C20.0139606,34.9253075 20.6540003,34.2857143 21.4435292,34.2857143 L22.8730979,34.2857143 C23.6626268,34.2857143 24.3026665,34.9253075 24.3026665,35.7142857 L24.3026665,37.1428571 Z M24.3026665,31.4285714 C24.3026665,32.2175496 23.6626268,32.8571429 22.8730979,32.8571429 L21.4435292,32.8571429 C20.6540003,32.8571429 20.0139606,32.2175496 20.0139606,31.4285714 L20.0139606,30 C20.0139606,29.2110218 20.6540003,28.5714286 21.4435292,28.5714286 L22.8730979,28.5714286 C23.6626268,28.5714286 24.3026665,29.2110218 24.3026665,30 L24.3026665,31.4285714 Z M24.3026665,25.7142857 C24.3026665,26.5032639 23.6626268,27.1428571 22.8730979,27.1428571 L21.4435292,27.1428571 C20.6540003,27.1428571 20.0139606,26.5032639 20.0139606,25.7142857 L20.0139606,24.2857143 C20.0139606,23.4967361 20.6540003,22.8571429 21.4435292,22.8571429 L22.8730979,22.8571429 C23.6626268,22.8571429 24.3026665,23.4967361 24.3026665,24.2857143 L24.3026665,25.7142857 Z M30.0209409,37.1428571 C30.0209409,37.9318354 29.3809013,38.5714286 28.5913723,38.5714286 L27.1618037,38.5714286 C26.3722748,38.5714286 25.7322351,37.9318354 25.7322351,37.1428571 L25.7322351,35.7142857 C25.7322351,34.9253075 26.3722748,34.2857143 27.1618037,34.2857143 L28.5913723,34.2857143 C29.3809013,34.2857143 30.0209409,34.9253075 30.0209409,35.7142857 L30.0209409,37.1428571 Z M30.0209409,31.4285714 C30.0209409,32.2175496 29.3809013,32.8571429 28.5913723,32.8571429 L27.1618037,32.8571429 C26.3722748,32.8571429 25.7322351,32.2175496 25.7322351,31.4285714 L25.7322351,30 C25.7322351,29.2110218 26.3722748,28.5714286 27.1618037,28.5714286 L28.5913723,28.5714286 C29.3809013,28.5714286 30.0209409,29.2110218 30.0209409,30 L30.0209409,31.4285714 Z M30.0209409,25.7142857 C30.0209409,26.5032639 29.3809013,27.1428571 28.5913723,27.1428571 L27.1618037,27.1428571 C26.3722748,27.1428571 25.7322351,26.5032639 25.7322351,25.7142857 L25.7322351,24.2857143 C25.7322351,23.4967361 26.3722748,22.8571429 27.1618037,22.8571429 L28.5913723,22.8571429 C29.3809013,22.8571429 30.0209409,23.4967361 30.0209409,24.2857143 L30.0209409,25.7142857 Z M35.7392154,37.1428571 C35.7392154,37.9318354 35.0991757,38.5714286 34.3096468,38.5714286 L32.8800782,38.5714286 C32.0905492,38.5714286 31.4505096,37.9318354 31.4505096,37.1428571 L31.4505096,35.7142857 C31.4505096,34.9253075 32.0905492,34.2857143 32.8800782,34.2857143 L34.3096468,34.2857143 C35.0991757,34.2857143 35.7392154,34.9253075 35.7392154,35.7142857 L35.7392154,37.1428571 Z M35.7392154,31.4285714 C35.7392154,32.2175496 35.0991757,32.8571429 34.3096468,32.8571429 L32.8800782,32.8571429 C32.0905492,32.8571429 31.4505096,32.2175496 31.4505096,31.4285714 L31.4505096,30 C31.4505096,29.2110218 32.0905492,28.5714286 32.8800782,28.5714286 L34.3096468,28.5714286 C35.0991757,28.5714286 35.7392154,29.2110218 35.7392154,30 L35.7392154,31.4285714 Z M35.7392154,25.7142857 C35.7392154,26.5032639 35.0991757,27.1428571 34.3096468,27.1428571 L32.8800782,27.1428571 C32.0905492,27.1428571 31.4505096,26.5032639 31.4505096,25.7142857 L31.4505096,24.2857143 C31.4505096,23.4967361 32.0905492,22.8571429 32.8800782,22.8571429 L34.3096468,22.8571429 C35.0991757,22.8571429 35.7392154,23.4967361 35.7392154,24.2857143 L35.7392154,25.7142857 Z M35.7392154,20 C35.7392154,20.7889782 35.0991757,21.4285714 34.3096468,21.4285714 L21.4435292,21.4285714 C20.6540003,21.4285714 20.0139606,20.7889782 20.0139606,20 L20.0139606,14.2857143 C20.0139606,13.4967361 20.6540003,12.8571429 21.4435292,12.8571429 L34.3096468,12.8571429 C35.0991757,12.8571429 35.7392154,13.4967361 35.7392154,14.2857143 L35.7392154,20 Z" id="Shape" fill="#005FF3" fill-rule="nonzero"></path>
                            <polygon id="Rectangle-path" fill="#1E5ACB" points="32.8800782 35.7142857 34.3096468 35.7142857 34.3096468 37.1428571 32.8800782 37.1428571"></polygon>
                        </g>
                    </g>
                </g>
            </g>
        </g>
    </g>
</svg>