<?xml version="1.0" encoding="UTF-8"?>
<svg width="33px" height="40px" viewBox="0 0 33 40" version="1.1" xmlns="http://www.w3.org/2000/svg" xmlns:xlink="http://www.w3.org/1999/xlink">
    <title>Group 10</title>
    <g id="Page-1" stroke="none" stroke-width="1" fill="none" fill-rule="evenodd">
        <g id="ofb_home-v3-" transform="translate(-936.000000, -4090.000000)">
            <g id="Group-53" transform="translate(240.000000, 3722.000000)">
                <g id="Group-19" transform="translate(216.000000, 352.000000)">
                    <g id="Group-54" transform="translate(336.000000, 0.000000)">
                        <g id="Group-10" transform="translate(144.000000, 16.000000)">
                            <path d="M2.03497615,39.9657337 L30.5246423,39.9657337 C31.6485286,39.9657337 32.5596184,39.0551264 32.5596184,37.9318354 L32.5596184,35.8979371 L0,35.8979371 L0,37.9318354 C0,39.0551264 0.911089857,39.9657337 2.03497615,39.9657337 Z" id="Shape" fill="#1E5ACB"></path>
                            <path d="M0,20.3047167 C0,21.0535774 0.607393238,21.6606489 1.35665077,21.6606489 L4.74827769,21.6606489 C5.49753522,21.6606489 6.10492846,21.0535774 6.10492846,20.3047167 C6.10492846,19.5558561 5.49753522,18.9487845 4.74827769,18.9487845 L4.74827769,12.1691235 C5.49753522,12.1691235 6.10492846,11.562052 6.10492846,10.8131913 C6.10492846,10.0643306 5.49753522,9.45725912 4.74827769,9.45725912 L1.35665077,9.45725912 C0.607393238,9.45725912 0,10.0643306 0,10.8131913 C0,11.562052 0.607393238,12.1691235 1.35665077,12.1691235 L1.35665077,18.9487845 C0.607393238,18.9487845 0,19.5558561 0,20.3047167 Z" id="Shape" fill="#447EED"></path>
                            <path d="M14.9231585,10.8131913 C14.9231585,10.0643306 14.3157652,9.45725912 13.5665077,9.45725912 L10.1748808,9.45725912 C9.42562323,9.45725912 8.81822999,10.0643306 8.81822999,10.8131913 C8.81822999,11.562052 9.42562323,12.1691235 10.1748808,12.1691235 L10.1748808,18.9487845 C9.42562323,18.9487845 8.81822999,19.5558561 8.81822999,20.3047167 C8.81822999,21.0535774 9.42562323,21.6606489 10.1748808,21.6606489 L13.5665077,21.6606489 C14.3157652,21.6606489 14.9231585,21.0535774 14.9231585,20.3047167 C14.9231585,19.5558561 14.3157652,18.9487845 13.5665077,18.9487845 L13.5665077,12.1691235 C14.3157652,12.1691235 14.9231585,11.562052 14.9231585,10.8131913 Z" id="Shape" fill="#1E5ACB"></path>
                            <path d="M23.7413884,10.8131913 C23.7413884,10.0643306 23.1339952,9.45725912 22.3847377,9.45725912 L18.9931108,9.45725912 C18.2438532,9.45725912 17.63646,10.0643306 17.63646,10.8131913 C17.63646,11.562052 18.2438532,12.1691235 18.9931108,12.1691235 L18.9931108,18.9487845 C18.2438532,18.9487845 17.63646,19.5558561 17.63646,20.3047167 C17.63646,21.0535774 18.2438532,21.6606489 18.9931108,21.6606489 L22.3847377,21.6606489 C23.1339952,21.6606489 23.7413884,21.0535774 23.7413884,20.3047167 C23.7413884,19.5558561 23.1339952,18.9487845 22.3847377,18.9487845 L22.3847377,12.1691235 C23.1339952,12.1691235 23.7413884,11.562052 23.7413884,10.8131913 Z" id="Shape" fill="#447EED"></path>
                            <path d="M27.8113408,9.45725912 C27.0620832,9.45725912 26.45469,10.0643306 26.45469,10.8131913 C26.45469,11.562052 27.0620832,12.1691235 27.8113408,12.1691235 L27.8113408,18.9487845 C27.0620832,18.9487845 26.45469,19.5558561 26.45469,20.3047167 C26.45469,21.0535774 27.0620832,21.6606489 27.8113408,21.6606489 L31.2029677,21.6606489 C31.9522252,21.6606489 32.5596184,21.0535774 32.5596184,20.3047167 C32.5596184,19.5558561 31.9522252,18.9487845 31.2029677,18.9487845 L31.2029677,12.1691235 C31.9522252,12.1691235 32.5596184,11.562052 32.5596184,10.8131913 C32.5596184,10.0643306 31.9522252,9.45725912 31.2029677,9.45725912 L27.8113408,9.45725912 Z" id="Shape" fill="#1E5ACB"></path>
                            <path d="M1.37496555,6.74542563 L31.1846529,6.74542563 C31.514427,6.74852163 31.7986669,6.51413831 31.8582503,6.18994831 C31.9178338,5.86575831 31.7354936,5.5457122 31.4261367,5.43149641 C15.1659989,-0.436300203 16.385628,-0.072232406 16.0383254,0.0531913228 L1.13348172,5.43149641 C0.824124819,5.5457122 0.641784593,5.86575831 0.701368084,6.18994831 C0.760951568,6.51413831 1.04519142,6.74852163 1.37496555,6.74542563 Z" id="Shape" fill="#00D7A5" fill-rule="nonzero"></path>
                            <path d="M12.2234234,31.6945462 C12.2879008,31.3788413 12.5657955,31.1521086 12.8881823,31.1521744 L19.6714361,31.1521744 C19.9938229,31.1521086 20.2717177,31.3788413 20.336195,31.6945462 L20.9059883,34.5420049 L32.5596184,34.5420049 L29.4773079,24.6220049 C29.2927058,24.0680486 28.7740302,23.6944066 28.1898463,23.6945462 L4.36977213,23.6945462 C3.78508899,23.6938223 3.26571346,24.0675746 3.0809539,24.6220049 L0,34.5420049 L11.6536301,34.5420049 L12.2234234,31.6945462 Z M28.4896661,29.1182761 C28.4896661,29.4927064 28.1859695,29.7962422 27.8113408,29.7962422 L26.45469,29.7962422 C26.0800613,29.7962422 25.7763646,29.4927064 25.7763646,29.1182761 C25.7763646,28.7438458 26.0800613,28.44031 26.45469,28.44031 L27.8113408,28.44031 C28.1859695,28.44031 28.4896661,28.7438458 28.4896661,29.1182761 Z M25.7763646,25.7284456 L27.1330154,25.7284456 C27.5076441,25.7284456 27.8113408,26.0319814 27.8113408,26.4064117 C27.8113408,26.780842 27.5076441,27.0843778 27.1330154,27.0843778 L25.7763646,27.0843778 C25.4017359,27.0843778 25.0980392,26.780842 25.0980392,26.4064117 C25.0980392,26.0319814 25.4017359,25.7284456 25.7763646,25.7284456 Z M24.4197138,29.1182761 C24.4197138,29.4927064 24.1160172,29.7962422 23.7413884,29.7962422 L22.3847377,29.7962422 C22.0101089,29.7962422 21.7064123,29.4927064 21.7064123,29.1182761 C21.7064123,28.7438458 22.0101089,28.44031 22.3847377,28.44031 L23.7413884,28.44031 C24.1160172,28.44031 24.4197138,28.7438458 24.4197138,29.1182761 Z M21.7064123,25.7284456 L23.0630631,25.7284456 C23.4376918,25.7284456 23.7413884,26.0319814 23.7413884,26.4064117 C23.7413884,26.780842 23.4376918,27.0843778 23.0630631,27.0843778 L21.7064123,27.0843778 C21.3317836,27.0843778 21.0280869,26.780842 21.0280869,26.4064117 C21.0280869,26.0319814 21.3317836,25.7284456 21.7064123,25.7284456 Z M20.3497615,29.1182761 C20.3497615,29.4927064 20.0460649,29.7962422 19.6714361,29.7962422 L18.3147854,29.7962422 C17.9401566,29.7962422 17.63646,29.4927064 17.63646,29.1182761 C17.63646,28.7438458 17.9401566,28.44031 18.3147854,28.44031 L19.6714361,28.44031 C20.0460649,28.44031 20.3497615,28.7438458 20.3497615,29.1182761 Z M17.63646,25.7284456 L18.9931108,25.7284456 C19.3677395,25.7284456 19.6714361,26.0319814 19.6714361,26.4064117 C19.6714361,26.780842 19.3677395,27.0843778 18.9931108,27.0843778 L17.63646,27.0843778 C17.2618313,27.0843778 16.9581346,26.780842 16.9581346,26.4064117 C16.9581346,26.0319814 17.2618313,25.7284456 17.63646,25.7284456 Z M13.5665077,25.7284456 L14.9231585,25.7284456 C15.2977872,25.7284456 15.6014838,26.0319814 15.6014838,26.4064117 C15.6014838,26.780842 15.2977872,27.0843778 14.9231585,27.0843778 L13.5665077,27.0843778 C13.191879,27.0843778 12.8881823,26.780842 12.8881823,26.4064117 C12.8881823,26.0319814 13.191879,25.7284456 13.5665077,25.7284456 Z M12.8881823,28.44031 L14.2448331,28.44031 C14.6194618,28.44031 14.9231585,28.7438458 14.9231585,29.1182761 C14.9231585,29.4927064 14.6194618,29.7962422 14.2448331,29.7962422 L12.8881823,29.7962422 C12.5135536,29.7962422 12.2098569,29.4927064 12.2098569,29.1182761 C12.2098569,28.7438458 12.5135536,28.44031 12.8881823,28.44031 Z M6.10492846,29.7962422 L4.74827769,29.7962422 C4.37364892,29.7962422 4.06995231,29.4927064 4.06995231,29.1182761 C4.06995231,28.7438458 4.37364892,28.44031 4.74827769,28.44031 L6.10492846,28.44031 C6.47955722,28.44031 6.78325384,28.7438458 6.78325384,29.1182761 C6.78325384,29.4927064 6.47955722,29.7962422 6.10492846,29.7962422 Z M6.78325384,27.0843778 L5.42660307,27.0843778 C5.05197431,27.0843778 4.74827769,26.780842 4.74827769,26.4064117 C4.74827769,26.0319814 5.05197431,25.7284456 5.42660307,25.7284456 L6.78325384,25.7284456 C7.15788257,25.7284456 7.46157923,26.0319814 7.46157923,26.4064117 C7.46157923,26.780842 7.15788257,27.0843778 6.78325384,27.0843778 Z M10.1748808,29.7962422 L8.81822999,29.7962422 C8.44360126,29.7962422 8.13990461,29.4927064 8.13990461,29.1182761 C8.13990461,28.7438458 8.44360126,28.44031 8.81822999,28.44031 L10.1748808,28.44031 C10.5495095,28.44031 10.8532061,28.7438458 10.8532061,29.1182761 C10.8532061,29.4927064 10.5495095,29.7962422 10.1748808,29.7962422 Z M10.8532061,27.0843778 L9.49655538,27.0843778 C9.12192665,27.0843778 8.81822999,26.780842 8.81822999,26.4064117 C8.81822999,26.0319814 9.12192665,25.7284456 9.49655538,25.7284456 L10.8532061,25.7284456 C11.2278349,25.7284456 11.5315315,26.0319814 11.5315315,26.4064117 C11.5315315,26.780842 11.2278349,27.0843778 10.8532061,27.0843778 Z" id="Shape" fill="#00D7A5" fill-rule="nonzero"></path>
                            <polygon id="Shape" fill="#447EED" points="13.0374139 34.5420049 19.5222046 34.5420049 19.1158877 32.5081066 13.4437308 32.5081066"></polygon>
                        </g>
                    </g>
                </g>
            </g>
        </g>
    </g>
</svg>