<?xml version="1.0" encoding="UTF-8"?>
<svg width="40px" height="40px" viewBox="0 0 40 40" version="1.1" xmlns="http://www.w3.org/2000/svg" xmlns:xlink="http://www.w3.org/1999/xlink">
    <title>002-Funds</title>
    <g id="Page-1" stroke="none" stroke-width="1" fill="none" fill-rule="evenodd">
        <g id="ofb_home-v3-" transform="translate(-594.000000, -4092.000000)">
            <g id="Group-53" transform="translate(240.000000, 3722.000000)">
                <g id="Group-19" transform="translate(216.000000, 352.000000)">
                    <g id="002-Funds" transform="translate(138.000000, 18.000000)">
                        <path d="M19.2109013,5.42083244 C19.1937323,5.48966136 19.2033469,5.50273885 19.2033469,9.67032967 C19.6604518,9.63350586 20.119768,9.63350586 20.5768728,9.67032967 C20.5768728,6.10017384 20.5871743,5.49241451 20.5693184,5.42083244 C21.9111326,5.07767721 22.7882971,3.78719725 22.6157555,2.41012457 C22.4432138,1.03305189 21.2749201,0 19.8901099,0 C18.5052997,0 17.337006,1.03305189 17.1644643,2.41012457 C16.9919227,3.78719725 17.8690871,5.07767721 19.2109013,5.42083244 Z" id="Shape" fill="#447EED"></path>
                        <path d="M17.3626374,37.2400049 C17.3591423,38.6725834 18.4524411,39.868452 19.8767316,39.9899541 C21.3010222,40.1114563 22.5802693,39.1179828 22.8184132,37.7054208 C23.0565572,36.2928589 22.174004,34.9333235 20.7889457,34.5791131 C20.806115,34.5102851 20.7965002,34.4972078 20.7965002,30.3296703 C20.3394039,30.3668373 19.8800547,30.3668373 19.4229584,30.3296703 C19.4229584,33.8997804 19.4126569,34.507532 19.4305129,34.5791131 C18.2163533,34.8896104 17.3657189,35.9841906 17.3626374,37.2400049 Z" id="Shape" fill="#447EED"></path>
                        <path d="M37.2400849,17.3626374 C35.9843069,17.3657189 34.8897584,18.2163533 34.5792702,19.4305129 C34.6480962,19.4305129 34.2564761,19.4229584 30.3299505,19.4229584 C30.3667728,19.8800685 30.3667728,20.3393901 30.3299505,20.7965002 C30.6472386,20.7965002 28.9878428,20.7889457 34.5792702,20.7889457 C34.9334703,22.174004 36.2929663,23.0565572 37.7054873,22.8184132 C39.1180084,22.5802693 40.1114531,21.3010222 39.9899544,19.8767316 C39.8684558,18.4524411 38.6726219,17.3591423 37.2400849,17.3626374 Z" id="Shape" fill="#447EED"></path>
                        <path d="M2.7599951,22.6373626 C4.01580947,22.6342811 5.11038962,21.7836467 5.42088688,20.5694871 C6.48359172,20.5694871 5.50279224,20.5770416 9.67032967,20.5770416 C9.63350633,20.1199315 9.63350633,19.6606099 9.67032967,19.2034998 C7.58621681,19.2034998 5.33416355,19.2110543 5.42088688,19.2110543 C5.06667648,17.825996 3.70714114,16.9434428 2.29457915,17.1815868 C0.882017163,17.4197307 -0.111456289,18.6989778 0.0100458732,20.1232684 C0.131548035,21.5475589 1.3274166,22.6408577 2.7599951,22.6373626 Z" id="Shape" fill="#447EED"></path>
                        <path d="M26.8131868,12.2163141 C27.157064,12.5188356 27.4812775,12.8429942 27.7838502,13.1868132 C30.5657301,10.4115989 30.7516018,10.2457193 30.7867109,10.1762013 C31.9805518,10.8841186 33.5147408,10.5929858 34.3661426,9.49695621 C35.2175446,8.40092662 35.119976,6.84266445 34.1385044,5.86135903 C33.1570329,4.88005362 31.5985069,4.78250155 30.5022917,5.63375933 C29.4060765,6.4850171 29.1148944,8.01894639 29.8229316,9.21258519 C29.7554671,9.24837664 29.7637281,9.2593894 26.8131868,12.2163141 Z" id="Shape" fill="#1E5ACB"></path>
                        <path d="M13.1868132,27.7836859 C12.842936,27.4811644 12.5187225,27.1570058 12.2161498,26.8131868 C9.43426994,29.5884011 9.24839823,29.7542807 9.21328913,29.8237987 C8.01944823,29.1158814 6.48525923,29.4070142 5.63385733,30.5030438 C4.78245543,31.5990734 4.88002401,33.1573356 5.86149557,34.1386409 C6.84296713,35.1199464 8.40149314,35.2174985 9.49770829,34.3662406 C10.5939235,33.5149829 10.8851056,31.9810536 10.1770684,30.7874148 C10.2445329,30.7860382 11.552519,29.4218332 13.1868132,27.7836859 L13.1868132,27.7836859 Z" id="Shape" fill="#1E5ACB"></path>
                        <path d="M30.24043,34.1343502 C31.2512495,35.149589 32.8717074,35.2200319 33.9668146,34.2963398 C35.0619218,33.3726476 35.2656978,31.7635146 34.4354154,30.5959978 C33.605133,29.4284809 32.0182692,29.0927597 30.7862834,29.8239774 C30.7518664,29.7551436 30.740853,29.7634036 27.7837457,26.8131868 C27.4812057,27.1570262 27.157027,27.4812041 26.8131868,27.7837434 C28.4748388,29.4488331 29.7551506,30.786274 29.8239845,30.786274 C29.1826889,31.8666071 29.3540186,33.2440376 30.24043,34.1343502 L30.24043,34.1343502 Z" id="Shape" fill="#1E5ACB"></path>
                        <path d="M9.21396178,10.1756915 C9.24837664,10.2445329 9.2593894,10.2362719 12.2163141,13.1868132 C12.5188356,12.842936 12.8429942,12.5187225 13.1868132,12.2161498 C10.4115989,9.43426994 10.2457193,9.24839823 10.1762013,9.21328913 C10.8841186,8.01944823 10.5929858,6.48525923 9.49695621,5.63385733 C8.40092662,4.78245543 6.84266445,4.88002401 5.86135903,5.86149557 C4.88005362,6.84296713 4.78250155,8.40149314 5.63375933,9.49770829 C6.4850171,10.5939235 8.01894639,10.8851056 9.21258519,10.1770684 L9.21396178,10.1756915 Z" id="Shape" fill="#1E5ACB"></path>
                        <path d="M13.2060816,16.9176577 C12.8385095,17.7083837 12.6089926,18.556191 12.5274725,19.4243565 C12.8941096,19.4408397 13.1828784,19.7428827 13.1828784,20.1098901 C13.1828784,20.4768975 12.8941096,20.7789405 12.5274725,20.7954238 C12.6089947,21.6658088 12.8384937,22.5158918 13.2060816,23.3090471 C13.5309075,23.1404487 13.9308897,23.2570337 14.1142562,23.5737576 C14.2976227,23.8904814 14.1995662,24.2954046 13.8916152,24.4931507 C14.392661,25.2062578 15.0135224,25.8271192 15.7266295,26.328165 C15.9243757,26.0202141 16.3292988,25.9221575 16.6460227,26.105524 C16.9627465,26.2888905 17.0793315,26.6888727 16.9107331,27.0136986 C17.7038884,27.3812865 18.5539714,27.6107855 19.4243565,27.6923077 C19.4408397,27.3256707 19.7428827,27.0369018 20.1098901,27.0369018 C20.4768975,27.0369018 20.7789405,27.3256707 20.7954238,27.6923077 C21.6658088,27.6107855 22.5158918,27.3812865 23.3090471,27.0136986 C23.1404487,26.6888727 23.2570337,26.2888905 23.5737576,26.105524 C23.8904814,25.9221575 24.2954046,26.0202141 24.4931507,26.328165 C25.2082741,25.8295226 25.8295226,25.2082741 26.328165,24.4931507 C26.0202141,24.2954046 25.9221575,23.8904814 26.105524,23.5737576 C26.2888905,23.2570337 26.6888727,23.1404487 27.0136986,23.3090471 C27.3812865,22.5158918 27.6107855,21.6658088 27.6923077,20.7954238 C27.3256707,20.7789405 27.0369018,20.4768975 27.0369018,20.1098901 C27.0369018,19.7428827 27.3256707,19.4408397 27.6923077,19.4243565 C27.6107876,18.556191 27.3812707,17.7083837 27.0136986,16.9176577 C26.6877142,17.080582 26.2912343,16.9611774 26.1094379,16.6453291 C25.9276414,16.3294807 26.023544,15.92667 26.328165,15.7266295 C25.8272267,15.013432 25.2063482,14.3925535 24.4931507,13.8916152 C24.2954046,14.1995662 23.8904814,14.2976227 23.5737576,14.1142562 C23.2570337,13.9308897 23.1404487,13.5309075 23.3090471,13.2060816 C22.5158918,12.8384937 21.6658088,12.6089947 20.7954238,12.5274725 C20.7789405,12.8941096 20.4768975,13.1828784 20.1098901,13.1828784 C19.7428827,13.1828784 19.4408397,12.8941096 19.4243565,12.5274725 C18.5539714,12.6089947 17.7038884,12.8384937 16.9107331,13.2060816 C17.0793315,13.5309075 16.9627465,13.9308897 16.6460227,14.1142562 C16.3292988,14.2976227 15.9243757,14.1995662 15.7266295,13.8916152 C15.0136036,14.3927576 14.3927576,15.0136036 13.8916152,15.7266295 C14.1962363,15.92667 14.2921388,16.3294807 14.1103424,16.6453291 C13.9285459,16.9611774 13.532066,17.080582 13.2060816,16.9176577 Z" id="Shape" fill="#00D7A5" fill-rule="nonzero"></path>
                        <g id="Group-4" transform="translate(17.802198, 17.142857)" fill="#FFFFFF">
                            <polygon id="Path" points="3.65637667 5.59045632 2.37347398 4.33603651 2.10679151 4.69361147 2.37347398 5.44232073 3.09068982 6.14357236"></polygon>
                            <path d="M3.73304788,2.34680574 L4.57360436,2.34680574 L4.57360436,1.56453716 L3.73331457,1.56453716 C3.67309767,1.27567145 3.54751689,1.00977836 3.37243985,0.782268579 L4.57360436,0.782268579 L4.57360436,-1.42108547e-14 L2.37347398,-1.42108547e-14 L2.10679151,0.470039113 L2.37347398,0.940078227 C2.6183685,1.07900913 2.80875311,1.30005215 2.90470546,1.56453716 L2.37347398,1.56453716 L2.10679151,1.95567145 L2.37347398,2.34680574 L2.90470546,2.34680574 C2.80875311,2.61129074 2.6183685,2.83233377 2.37347398,2.97126467 L2.10679151,3.42894394 L2.37347398,3.82101695 C3.05970132,3.60943937 3.58738592,3.04539765 3.73304788,2.34680574 L3.73304788,2.34680574 Z" id="Path"></path>
                            <polygon id="Path" points="0.173343606 1.56453716 2.37347398 1.56453716 2.37347398 2.34680574 0.173343606 2.34680574"></polygon>
                            <path d="M0.173343606,-1.56319402e-13 L0.173343606,0.782268579 L1.77343843,0.782268579 C1.99195804,0.782268579 2.19685018,0.839869622 2.37347398,0.940078227 L2.37347398,-1.56319402e-13 L0.173343606,-1.56319402e-13 Z" id="Path"></path>
                            <path d="M1.93286121,3.90518905 C2.08519023,3.89337679 2.2326123,3.86445893 2.37347398,3.82101695 L2.37347398,2.97126467 C2.19685018,3.07147327 1.99195804,3.12907432 1.77343843,3.12907432 L0.00765378689,3.12907432 L2.37347398,5.44232073 L2.37347398,4.33603651 L1.93286121,3.90518905 Z" id="Path"></path>
                        </g>
                    </g>
                </g>
            </g>
        </g>
    </g>
</svg>